<?xml version="1.0" encoding="utf-8"?>
<!-- Generator: Adobe Illustrator 19.1.0, SVG Export Plug-In . SVG Version: 6.00 Build 0)  -->
<svg version="1.1" id="Flag" xmlns="http://www.w3.org/2000/svg" xmlns:xlink="http://www.w3.org/1999/xlink" x="0px" y="0px"
	 width="960px" height="560px" viewBox="0 0 960 560" style="enable-background:new 0 0 960 560;" xml:space="preserve">
<style type="text/css">
	.st0{fill:#C5FEF1;}
	.st1{fill:#DCECA3;}
	.st2{fill:#A0F6B7;}
	.st3{fill:#1D1D1B;}
	.st4{fill:#FFFFFF;stroke:#FFFFFF;stroke-miterlimit:10;}
	.st5{fill:#FFFFFF;}
	.st6{fill:#FFFFFF;stroke:#1D1D1B;stroke-width:5;stroke-miterlimit:10;}
	.st7{fill:none;stroke:#1D1D1B;stroke-width:5;stroke-miterlimit:10;}
</style>
<g id="sky">
<rect id="" x="-51" y="-56.8" class="st0" width="1078" height="522.7"/>
</g>
<g id="circle">
  <circle id="" class="st1" cx="486.2" cy="47.3" r="302.5"/>
</g>
<g id="green">
<rect id="" x="-51" y="417" class="st2" width="1078" height="196.7"/>
</g>

<g id="minimum">
	<path class="st3" d="M27,21.4h7l9.4,27.1h0.1L53,21.4h7.1v51.2h-7.3V41.4h-0.1l-7.3,22h-3.7l-7.2-22h-0.1v31.1H27V21.4z"/>
	<path class="st3" d="M67.2,21.4h7.3v51.2h-7.3V21.4z"/>
	<path class="st3" d="M81.4,21.4h7l11.1,30.8h0.1V21.4h7.3v51.2h-6.9L88.8,41.8h-0.1v30.8h-7.3V21.4z"/>
	<path class="st3" d="M113.8,21.4h7.3v51.2h-7.3V21.4z"/>
	<path class="st3" d="M128.2,21.4h7l9.4,27.1h0.1l9.3-27.1h7.1v51.2H154V41.4h-0.1l-7.3,22h-3.7l-7.2-22h-0.1v31.1h-7.3V21.4z"/>
	<path class="st3" d="M191.9,61.1c0,1.7-0.3,3.2-0.9,4.7c-0.6,1.4-1.5,2.7-2.6,3.8c-1.1,1.1-2.3,1.9-3.8,2.6c-1.4,0.6-3,0.9-4.6,0.9
		c-1.6,0-3.2-0.3-4.6-0.9c-1.4-0.6-2.7-1.5-3.8-2.6c-1.1-1.1-1.9-2.3-2.6-3.8c-0.6-1.4-0.9-3-0.9-4.7V21.4h7.3v39
		c0,1.8,0.4,3.2,1.3,4s1.9,1.3,3.2,1.3c1.3,0,2.4-0.4,3.2-1.3s1.3-2.2,1.3-4v-39h7.3V61.1z"/>
	<path class="st3" d="M198.8,21.4h7l9.4,27.1h0.1l9.3-27.1h7.1v51.2h-7.3V41.4h-0.1l-7.3,22h-3.7l-7.2-22h-0.1v31.1h-7.3V21.4z"/>
</g>
<g id="viable">
	<path class="st3" d="M781,72.6h-6.5l-10.4-51.2h7.8l5.8,35.7h0.1l5.9-35.7h7.8L781,72.6z"/>
	<path class="st3" d="M796.1,21.4h7.3v51.2h-7.3V21.4z"/>
	<path class="st3" d="M818.6,21.4h6.1l11.4,51.2h-7.3l-2.2-11h-10l-2.2,11h-7.3L818.6,21.4z M821.7,36.1h-0.1L818,54.7h7.3
		L821.7,36.1z"/>
	<path class="st3" d="M839.8,21.4h10.7c2.3,0,4.3,0.4,6,1.1c1.7,0.7,3,1.7,4.1,2.9c1.1,1.2,1.8,2.6,2.3,4.1c0.5,1.6,0.7,3.2,0.7,4.9
		v1.9c0,1.4-0.1,2.6-0.3,3.5c-0.2,1-0.5,1.8-1,2.5c-0.4,0.7-1,1.4-1.6,1.9c-0.6,0.6-1.3,1.1-2.2,1.5c1.7,0.8,3,2,3.8,3.6
		c0.8,1.6,1.2,3.8,1.2,6.4v2.9c0,4.5-1.1,8-3.3,10.4c-2.2,2.4-5.7,3.6-10.5,3.6h-10V21.4z M847.1,42.4h3.3c2.4,0,4.1-0.6,4.9-1.8
		c0.8-1.2,1.3-3,1.3-5.4c0-2.3-0.5-4-1.4-5.2c-0.9-1.2-2.6-1.7-5.1-1.7h-3V42.4z M847.1,65.2h3.2c1.5,0,2.6-0.2,3.5-0.6
		c0.8-0.4,1.5-1,1.9-1.8c0.4-0.8,0.7-1.7,0.8-2.7c0.1-1.1,0.1-2.2,0.1-3.5c0-1.3-0.1-2.4-0.2-3.4c-0.1-1-0.4-1.8-0.9-2.4
		c-0.5-0.6-1.1-1.1-1.9-1.5c-0.8-0.3-1.9-0.5-3.2-0.5h-3.2V65.2z"/>
	<path class="st3" d="M870.4,21.4h7.3v43.9h14.5v7.3h-21.9V21.4z"/>
	<path class="st3" d="M897,21.4h21.9v6.9h-14.5v15H917v6.9h-12.7v15h14.5v7.3H897V21.4z"/>
</g>
<g id="network">
	<path class="st3" d="M26.7,480.3h7l11.1,30.8H45v-30.8h7.3v51.2h-6.9l-11.2-30.8h-0.1v30.8h-7.3V480.3z"/>
	<path class="st3" d="M58.9,480.3h21.9v6.9H66.3v15h12.7v6.9H66.3v15h14.5v7.3H58.9V480.3z"/>
	<path class="st3" d="M90.3,487.2h-8.5v-6.9h24.3v6.9h-8.5v44.3h-7.3V487.2z"/>
	<path class="st3" d="M139.8,531.5h-6.9l-5.6-33.2h-0.1l-5.5,33.2h-6.9l-7.6-51.2h7.8l3.7,32.5h0.1l5.8-32.5h5.6l6,33.3h0.1
		l3.5-33.3h7.8L139.8,531.5z"/>
	<path class="st3" d="M150.7,492.4c0-2.1,0.4-3.9,1.1-5.5c0.7-1.6,1.7-2.9,2.8-3.9c1.2-1,2.5-1.8,4-2.3c1.5-0.5,2.9-0.8,4.4-0.8
		c1.5,0,3,0.3,4.4,0.8c1.5,0.5,2.8,1.3,4,2.3c1.2,1,2.1,2.3,2.8,3.9c0.7,1.6,1.1,3.4,1.1,5.5v27c0,2.1-0.4,3.9-1.1,5.5
		c-0.7,1.6-1.7,2.9-2.8,3.9c-1.2,1-2.5,1.8-4,2.3c-1.5,0.5-2.9,0.8-4.4,0.8c-1.5,0-3-0.3-4.4-0.8c-1.5-0.5-2.8-1.3-4-2.3
		c-1.2-1-2.1-2.3-2.8-3.9c-0.7-1.6-1.1-3.4-1.1-5.5V492.4z M158.1,519.4c0,1.8,0.5,3.1,1.5,3.9c1,0.8,2.1,1.3,3.5,1.3
		c1.3,0,2.5-0.4,3.5-1.3c1-0.8,1.5-2.1,1.5-3.9v-27c0-1.8-0.5-3.1-1.5-3.9c-1-0.8-2.1-1.3-3.5-1.3c-1.3,0-2.5,0.4-3.5,1.3
		c-1,0.8-1.5,2.1-1.5,3.9V519.4z"/>
	<path class="st3" d="M181.8,480.3h11.8c8.6,0,12.9,5,12.9,15c0,3-0.5,5.5-1.4,7.7c-0.9,2.1-2.6,3.8-4.9,5.1l7.9,23.4h-7.8
		l-6.8-21.9h-4.4v21.9h-7.3V480.3z M189.1,503.2h4.2c1.3,0,2.3-0.2,3.1-0.5c0.8-0.4,1.4-0.9,1.8-1.5c0.4-0.7,0.7-1.5,0.8-2.5
		c0.1-1,0.2-2.1,0.2-3.4c0-1.3-0.1-2.4-0.2-3.4c-0.1-1-0.4-1.8-0.9-2.5c-0.5-0.7-1.1-1.2-1.9-1.5c-0.8-0.3-1.9-0.5-3.2-0.5h-3.8
		V503.2z"/>
	<path class="st3" d="M212.4,480.3h7.3v23.4h0.1l10.7-23.4h7.3l-10,20.5l11.9,30.7h-7.8l-8.3-22.7l-4,7.4v15.3h-7.3V480.3z"/>
</g>
<g id="utopia">
	<path class="st3" d="M798.3,520c0,1.7-0.3,3.2-0.9,4.7c-0.6,1.4-1.5,2.7-2.6,3.8c-1.1,1.1-2.3,1.9-3.8,2.6c-1.4,0.6-3,0.9-4.6,0.9
		c-1.6,0-3.2-0.3-4.6-0.9c-1.4-0.6-2.7-1.5-3.8-2.6c-1.1-1.1-1.9-2.3-2.6-3.8c-0.6-1.4-0.9-3-0.9-4.7v-39.7h7.3v39
		c0,1.8,0.4,3.2,1.3,4c0.9,0.9,1.9,1.3,3.2,1.3s2.4-0.4,3.2-1.3c0.9-0.9,1.3-2.2,1.3-4v-39h7.3V520z"/>
	<path class="st3" d="M810,487.2h-8.5v-6.9h24.3v6.9h-8.5v44.3H810V487.2z"/>
	<path class="st3" d="M827.8,492.4c0-2.1,0.4-3.9,1.1-5.5c0.7-1.6,1.7-2.9,2.8-3.9c1.2-1,2.5-1.8,4-2.3c1.5-0.5,2.9-0.8,4.4-0.8
		c1.5,0,3,0.3,4.4,0.8c1.5,0.5,2.8,1.3,4,2.3c1.2,1,2.1,2.3,2.8,3.9c0.7,1.6,1.1,3.4,1.1,5.5v27c0,2.1-0.4,3.9-1.1,5.5
		c-0.7,1.6-1.7,2.9-2.8,3.9c-1.2,1-2.5,1.8-4,2.3c-1.5,0.5-2.9,0.8-4.4,0.8c-1.5,0-3-0.3-4.4-0.8c-1.5-0.5-2.8-1.3-4-2.3
		c-1.2-1-2.1-2.3-2.8-3.9c-0.7-1.6-1.1-3.4-1.1-5.5V492.4z M835.1,519.4c0,1.8,0.5,3.1,1.5,3.9s2.1,1.3,3.5,1.3
		c1.3,0,2.5-0.4,3.5-1.3c1-0.8,1.5-2.1,1.5-3.9v-27c0-1.8-0.5-3.1-1.5-3.9c-1-0.8-2.1-1.3-3.5-1.3c-1.3,0-2.5,0.4-3.5,1.3
		s-1.5,2.1-1.5,3.9V519.4z"/>
	<path class="st3" d="M858.8,480.3h11c2,0,3.8,0.3,5.3,0.8c1.5,0.5,2.9,1.5,4.2,2.8c1.2,1.3,2.1,2.9,2.6,4.7s0.7,4.2,0.7,7.3
		c0,2.3-0.1,4.2-0.4,5.8c-0.3,1.6-0.8,3.1-1.7,4.5c-1,1.7-2.3,3-4,3.9c-1.7,0.9-3.9,1.4-6.6,1.4h-3.7v20h-7.3V480.3z M866.2,504.6
		h3.5c1.5,0,2.6-0.2,3.5-0.6c0.8-0.4,1.4-1,1.8-1.8c0.4-0.7,0.6-1.6,0.7-2.7c0.1-1.1,0.1-2.2,0.1-3.5c0-1.2,0-2.3-0.1-3.4
		c-0.1-1.1-0.3-2-0.6-2.8s-0.9-1.4-1.7-1.9c-0.8-0.5-1.9-0.7-3.3-0.7h-3.8V504.6z"/>
	<path class="st3" d="M888.3,480.3h7.3v51.2h-7.3V480.3z"/>
	<path class="st3" d="M910.9,480.3h6.1l11.4,51.2h-7.3l-2.2-11h-10l-2.2,11h-7.3L910.9,480.3z M914,495h-0.1l-3.6,18.5h7.3L914,495z
		"/>
</g>
<g id="connect">
	<polygon class="st4" points="638.8,296.4 327.3,296.4 269.6,381.1 696.8,381.1 	"/>
	<g>
		<path class="st3" d="M409.8,341.7c0,0.8-0.2,1.6-0.5,2.4c-0.3,0.8-0.8,1.4-1.4,2c-0.6,0.6-1.3,1-2.1,1.4c-0.8,0.3-1.7,0.5-2.6,0.5
			c-0.8,0-1.6-0.1-2.4-0.3c-0.8-0.2-1.5-0.6-2.2-1.1c-0.7-0.5-1.2-1.2-1.6-2c-0.4-0.8-0.6-1.8-0.6-3.1v-15c0-0.9,0.2-1.7,0.5-2.5
			s0.8-1.4,1.4-2c0.6-0.6,1.3-1,2.1-1.3c0.8-0.3,1.7-0.5,2.7-0.5c0.9,0,1.8,0.2,2.6,0.5c0.8,0.3,1.5,0.8,2.1,1.3
			c0.6,0.6,1.1,1.3,1.4,2.1c0.3,0.8,0.5,1.7,0.5,2.6v1.5h-4.1v-1.3c0-0.8-0.2-1.4-0.7-2c-0.5-0.6-1.1-0.8-1.9-0.8
			c-1,0-1.7,0.3-2.1,0.9c-0.3,0.6-0.5,1.4-0.5,2.3v13.9c0,0.8,0.2,1.5,0.5,2c0.4,0.5,1,0.8,2,0.8c0.3,0,0.6,0,0.9-0.1
			c0.3-0.1,0.6-0.2,0.9-0.4c0.3-0.2,0.5-0.5,0.6-0.8c0.2-0.4,0.2-0.8,0.2-1.3V340h4.1V341.7z"/>
		<path class="st3" d="M414.7,327c0-1.1,0.2-2.1,0.6-2.9c0.4-0.8,0.9-1.5,1.6-2.1c0.7-0.5,1.4-1,2.2-1.2c0.8-0.3,1.7-0.4,2.5-0.4
			c0.8,0,1.7,0.1,2.5,0.4c0.8,0.3,1.6,0.7,2.2,1.2c0.7,0.5,1.2,1.2,1.6,2.1c0.4,0.8,0.6,1.8,0.6,2.9v14.4c0,1.1-0.2,2.1-0.6,2.9
			s-0.9,1.5-1.6,2.1c-0.7,0.5-1.4,1-2.2,1.2c-0.8,0.3-1.7,0.4-2.5,0.4c-0.8,0-1.7-0.1-2.5-0.4c-0.8-0.3-1.6-0.7-2.2-1.2
			c-0.7-0.5-1.2-1.2-1.6-2.1s-0.6-1.8-0.6-2.9V327z M418.9,341.4c0,0.9,0.3,1.6,0.8,2.1c0.6,0.4,1.2,0.7,2,0.7c0.8,0,1.4-0.2,2-0.7
			c0.6-0.4,0.8-1.1,0.8-2.1V327c0-0.9-0.3-1.6-0.8-2.1c-0.6-0.4-1.2-0.7-2-0.7c-0.8,0-1.4,0.2-2,0.7c-0.6,0.4-0.8,1.1-0.8,2.1V341.4
			z"/>
		<path class="st3" d="M433.8,320.6h4l6.3,16.4h0.1v-16.4h4.1v27.2h-3.9l-6.3-16.4H438v16.4h-4.1V320.6z"/>
		<path class="st3" d="M453.6,320.6h4l6.3,16.4h0.1v-16.4h4.1v27.2h-3.9l-6.3-16.4h-0.1v16.4h-4.1V320.6z"/>
		<path class="st3" d="M473.4,320.6h12.4v3.7h-8.2v8h7.2v3.7h-7.2v8h8.2v3.9h-12.4V320.6z"/>
		<path class="st3" d="M503.8,341.7c0,0.8-0.2,1.6-0.5,2.4s-0.8,1.4-1.4,2c-0.6,0.6-1.3,1-2.1,1.4c-0.8,0.3-1.7,0.5-2.6,0.5
			c-0.8,0-1.6-0.1-2.4-0.3c-0.8-0.2-1.5-0.6-2.2-1.1s-1.2-1.2-1.6-2c-0.4-0.8-0.6-1.8-0.6-3.1v-15c0-0.9,0.2-1.7,0.5-2.5
			c0.3-0.8,0.8-1.4,1.4-2c0.6-0.6,1.3-1,2.1-1.3s1.7-0.5,2.7-0.5c0.9,0,1.8,0.2,2.6,0.5s1.5,0.8,2.1,1.3c0.6,0.6,1.1,1.3,1.4,2.1
			s0.5,1.7,0.5,2.6v1.5h-4.1v-1.3c0-0.8-0.2-1.4-0.7-2s-1.1-0.8-1.9-0.8c-1,0-1.7,0.3-2.1,0.9c-0.3,0.6-0.5,1.4-0.5,2.3v13.9
			c0,0.8,0.2,1.5,0.5,2s1,0.8,2,0.8c0.3,0,0.6,0,0.9-0.1c0.3-0.1,0.6-0.2,0.9-0.4s0.5-0.5,0.6-0.8c0.2-0.4,0.2-0.8,0.2-1.3V340h4.1
			V341.7z"/>
		<path class="st3" d="M512.5,324.2h-4.8v-3.7h13.7v3.7h-4.8v23.5h-4.1V324.2z"/>
		<path class="st3" d="M525.8,320.6h4.1v27.2h-4.1V320.6z"/>
		<path class="st3" d="M535.3,327c0-1.1,0.2-2.1,0.6-2.9c0.4-0.8,0.9-1.5,1.6-2.1c0.7-0.5,1.4-1,2.2-1.2s1.7-0.4,2.5-0.4
			c0.8,0,1.7,0.1,2.5,0.4c0.8,0.3,1.6,0.7,2.2,1.2c0.7,0.5,1.2,1.2,1.6,2.1c0.4,0.8,0.6,1.8,0.6,2.9v14.4c0,1.1-0.2,2.1-0.6,2.9
			c-0.4,0.8-0.9,1.5-1.6,2.1c-0.7,0.5-1.4,1-2.2,1.2c-0.8,0.3-1.7,0.4-2.5,0.4c-0.8,0-1.7-0.1-2.5-0.4s-1.6-0.7-2.2-1.2
			s-1.2-1.2-1.6-2.1c-0.4-0.8-0.6-1.8-0.6-2.9V327z M539.5,341.4c0,0.9,0.3,1.6,0.8,2.1s1.2,0.7,2,0.7c0.8,0,1.4-0.2,2-0.7
			s0.8-1.1,0.8-2.1V327c0-0.9-0.3-1.6-0.8-2.1c-0.6-0.4-1.2-0.7-2-0.7c-0.8,0-1.4,0.2-2,0.7c-0.6,0.4-0.8,1.1-0.8,2.1V341.4z"/>
		<path class="st3" d="M554.4,320.6h4l6.3,16.4h0.1v-16.4h4.1v27.2H565l-6.3-16.4h-0.1v16.4h-4.1V320.6z"/>
	</g>
</g>
<g id="self">
	<path class="st4" d="M526,131.5c-11.1,2.3-26.6,3.9-43.8,3.9c-16.2,0-30.9-1.4-41.8-3.5l-54.8,79.6h195.2L526,131.5z"/>
	<g>
		<path class="st3" d="M468.9,167h-4.1v-0.9c0-0.9-0.2-1.7-0.7-2.3s-1.2-1-2.3-1c-0.6,0-1,0.1-1.4,0.3c-0.4,0.2-0.7,0.5-0.9,0.8
			c-0.2,0.3-0.3,0.7-0.4,1.1c-0.1,0.4-0.1,0.9-0.1,1.3c0,0.5,0,1,0.1,1.4c0,0.4,0.1,0.7,0.3,1c0.2,0.3,0.4,0.5,0.7,0.7
			c0.3,0.2,0.7,0.4,1.3,0.6l3.2,1.2c0.9,0.3,1.7,0.7,2.2,1.2c0.6,0.4,1,1,1.3,1.6c0.3,0.6,0.5,1.3,0.6,2.1c0.1,0.8,0.2,1.7,0.2,2.7
			c0,1.1-0.1,2.2-0.4,3.2c-0.2,1-0.6,1.8-1.2,2.5c-0.6,0.7-1.3,1.3-2.2,1.7c-0.9,0.4-2,0.6-3.4,0.6c-1,0-1.9-0.2-2.8-0.5
			c-0.9-0.3-1.6-0.8-2.2-1.4c-0.6-0.6-1.1-1.3-1.5-2s-0.5-1.6-0.5-2.6v-1.5h4.1v1.2c0,0.7,0.2,1.4,0.7,1.9c0.4,0.6,1.2,0.9,2.3,0.9
			c0.7,0,1.3-0.1,1.6-0.3c0.4-0.2,0.7-0.5,0.9-0.8c0.2-0.3,0.3-0.8,0.4-1.3c0.1-0.5,0.1-1.1,0.1-1.7c0-0.7,0-1.3-0.1-1.8
			c-0.1-0.5-0.2-0.8-0.3-1.1c-0.2-0.3-0.4-0.5-0.7-0.7c-0.3-0.2-0.7-0.4-1.2-0.6l-3-1.1c-1.8-0.7-3-1.6-3.6-2.7
			c-0.6-1.1-0.9-2.6-0.9-4.3c0-1,0.1-2,0.4-2.9c0.3-0.9,0.7-1.7,1.3-2.4c0.6-0.7,1.3-1.2,2.2-1.6c0.9-0.4,1.9-0.6,3.1-0.6
			c1,0,2,0.2,2.8,0.5c0.9,0.4,1.6,0.8,2.2,1.4s1.1,1.2,1.4,2c0.3,0.7,0.5,1.5,0.5,2.2V167z"/>
		<path class="st3" d="M471.5,159.2h12.4v3.7h-8.2v8h7.2v3.7h-7.2v8h8.2v3.9h-12.4V159.2z"/>
		<path class="st3" d="M486.2,159.2h4.1v23.3h8.2v3.9h-12.4V159.2z"/>
		<path class="st3" d="M500.8,159.2h12.4v3.7H505v8.3h7.2v3.7H505v11.6h-4.1V159.2z"/>
	</g>
</g>
<g id="power">

		<polygon class="st5" points="212.2,465.4 269.9,381.6 696.5,381.6 754.2,465.4 		"/>
		<path class="st5" d="M696.2,382.1l57,82.7H213.2l57-82.7H696.2 M696.8,381.1H269.6l-58.3,84.7h543.9L696.8,381.1L696.8,381.1z"/>

	<g>
		<path class="st3" d="M435.5,410.9h6.2c1.1,0,2.1,0.1,3,0.4c0.9,0.3,1.7,0.8,2.4,1.5c0.7,0.7,1.2,1.5,1.5,2.5
			c0.3,1,0.4,2.2,0.4,3.9c0,1.2-0.1,2.2-0.2,3.1c-0.1,0.9-0.5,1.7-1,2.4c-0.6,0.9-1.3,1.6-2.3,2.1c-0.9,0.5-2.2,0.7-3.7,0.7h-2.1
			v10.6h-4.1V410.9z M439.6,423.8h2c0.8,0,1.5-0.1,2-0.3c0.5-0.2,0.8-0.5,1-0.9c0.2-0.4,0.3-0.9,0.4-1.4c0-0.6,0.1-1.2,0.1-1.9
			c0-0.6,0-1.2-0.1-1.8c0-0.6-0.2-1.1-0.4-1.5c-0.2-0.4-0.5-0.8-1-1c-0.4-0.2-1.1-0.4-1.9-0.4h-2.2V423.8z"/>
		<path class="st3" d="M453.7,417.3c0-1.1,0.2-2.1,0.6-2.9c0.4-0.8,0.9-1.5,1.6-2.1c0.7-0.5,1.4-1,2.2-1.2s1.7-0.4,2.5-0.4
			c0.8,0,1.7,0.1,2.5,0.4c0.8,0.3,1.6,0.7,2.2,1.2c0.7,0.5,1.2,1.2,1.6,2.1c0.4,0.8,0.6,1.8,0.6,2.9v14.4c0,1.1-0.2,2.1-0.6,2.9
			c-0.4,0.8-0.9,1.5-1.6,2.1c-0.7,0.5-1.4,1-2.2,1.2c-0.8,0.3-1.7,0.4-2.5,0.4c-0.8,0-1.7-0.1-2.5-0.4s-1.6-0.7-2.2-1.2
			s-1.2-1.2-1.6-2.1c-0.4-0.8-0.6-1.8-0.6-2.9V417.3z M457.9,431.7c0,0.9,0.3,1.6,0.8,2.1s1.2,0.7,2,0.7c0.8,0,1.4-0.2,2-0.7
			s0.8-1.1,0.8-2.1v-14.4c0-0.9-0.3-1.6-0.8-2.1c-0.6-0.4-1.2-0.7-2-0.7c-0.8,0-1.4,0.2-2,0.7c-0.6,0.4-0.8,1.1-0.8,2.1V431.7z"/>
		<path class="st3" d="M490.3,438.1h-3.9l-3.2-17.7h-0.1l-3.1,17.7h-3.9l-4.3-27.2h4.4l2.1,17.3h0.1l3.3-17.3h3.2l3.4,17.7h0.1
			l2-17.7h4.4L490.3,438.1z"/>
		<path class="st3" d="M499.3,410.9h12.4v3.7h-8.2v8h7.2v3.7h-7.2v8h8.2v3.9h-12.4V410.9z"/>
		<path class="st3" d="M516.4,410.9h6.7c4.9,0,7.3,2.7,7.3,8c0,1.6-0.3,2.9-0.8,4.1c-0.5,1.1-1.5,2-2.8,2.7l4.5,12.4h-4.4l-3.9-11.6
			h-2.5v11.6h-4.1V410.9z M520.6,423h2.4c0.7,0,1.3-0.1,1.7-0.3c0.4-0.2,0.8-0.5,1-0.8s0.4-0.8,0.5-1.3c0.1-0.5,0.1-1.1,0.1-1.8
			c0-0.7,0-1.3-0.1-1.8c-0.1-0.5-0.3-1-0.5-1.3c-0.3-0.4-0.6-0.6-1.1-0.8c-0.5-0.2-1.1-0.3-1.8-0.3h-2.2V423z"/>
	</g>
</g>
<g id="friend">
	<polygon class="st4" points="580.8,211.7 386.2,211.7 327.6,296.4 638.8,296.4 	"/>
	<g>
		<path class="st3" d="M401.7,240.3H414v3.7h-8.2v8.3h7.2v3.7h-7.2v11.6h-4.1V240.3z"/>
		<path class="st3" d="M418.8,240.3h6.7c4.9,0,7.3,2.7,7.3,8c0,1.6-0.3,2.9-0.8,4.1c-0.5,1.1-1.5,2-2.8,2.7l4.5,12.4h-4.4l-3.9-11.6
			h-2.5v11.6h-4.1V240.3z M422.9,252.4h2.4c0.7,0,1.3-0.1,1.7-0.3c0.4-0.2,0.8-0.5,1-0.8c0.2-0.4,0.4-0.8,0.5-1.3
			c0.1-0.5,0.1-1.1,0.1-1.8c0-0.7,0-1.3-0.1-1.8c-0.1-0.5-0.3-1-0.5-1.3c-0.3-0.4-0.6-0.6-1.1-0.8c-0.5-0.2-1.1-0.3-1.8-0.3h-2.2
			V252.4z"/>
		<path class="st3" d="M438.4,240.3h4.1v27.2h-4.1V240.3z"/>
		<path class="st3" d="M448,240.3h12.4v3.7h-8.2v8h7.2v3.7h-7.2v8h8.2v3.9H448V240.3z"/>
		<path class="st3" d="M465.1,240.3h4l6.3,16.4h0.1v-16.4h4.1v27.2h-3.9l-6.3-16.4h-0.1v16.4h-4.1V240.3z"/>
		<path class="st3" d="M484.9,240.3h6.1c2.4,0,4.2,0.6,5.4,1.9c1.2,1.2,1.9,3,1.9,5.2V260c0,2.5-0.7,4.4-2,5.6
			c-1.3,1.2-3.2,1.8-5.7,1.8h-5.8V240.3z M489,263.8h1.9c1.2,0,2-0.3,2.5-0.8c0.5-0.5,0.7-1.4,0.7-2.6v-13.1c0-1.1-0.2-1.9-0.7-2.5
			c-0.5-0.6-1.3-0.9-2.5-0.9H489V263.8z"/>
		<path class="st3" d="M517.5,248.1h-4.1v-0.9c0-0.9-0.2-1.7-0.7-2.3s-1.2-1-2.3-1c-0.6,0-1,0.1-1.4,0.3c-0.4,0.2-0.7,0.5-0.9,0.8
			c-0.2,0.3-0.3,0.7-0.4,1.1c-0.1,0.4-0.1,0.9-0.1,1.3c0,0.5,0,1,0.1,1.4c0,0.4,0.1,0.7,0.3,1c0.2,0.3,0.4,0.5,0.7,0.7
			c0.3,0.2,0.7,0.4,1.3,0.6l3.2,1.2c0.9,0.3,1.7,0.7,2.2,1.2c0.6,0.4,1,1,1.3,1.6c0.3,0.6,0.5,1.3,0.6,2.1c0.1,0.8,0.2,1.7,0.2,2.7
			c0,1.1-0.1,2.2-0.4,3.2c-0.2,1-0.6,1.8-1.2,2.5s-1.3,1.3-2.2,1.7c-0.9,0.4-2,0.6-3.4,0.6c-1,0-1.9-0.2-2.8-0.5
			c-0.9-0.3-1.6-0.8-2.2-1.4c-0.6-0.6-1.1-1.3-1.5-2s-0.5-1.6-0.5-2.6v-1.5h4.1v1.2c0,0.7,0.2,1.4,0.7,1.9s1.2,0.9,2.3,0.9
			c0.7,0,1.3-0.1,1.6-0.3c0.4-0.2,0.7-0.5,0.9-0.8s0.3-0.8,0.4-1.3c0.1-0.5,0.1-1.1,0.1-1.7c0-0.7,0-1.3-0.1-1.8
			c-0.1-0.5-0.2-0.8-0.3-1.1c-0.2-0.3-0.4-0.5-0.7-0.7c-0.3-0.2-0.7-0.4-1.2-0.6l-3-1.1c-1.8-0.7-3-1.6-3.6-2.7
			c-0.6-1.1-0.9-2.6-0.9-4.3c0-1,0.1-2,0.4-2.9c0.3-0.9,0.7-1.7,1.3-2.4c0.6-0.7,1.3-1.2,2.2-1.6c0.9-0.4,1.9-0.6,3.1-0.6
			c1,0,2,0.2,2.8,0.5c0.9,0.4,1.6,0.8,2.2,1.4s1.1,1.2,1.4,2c0.3,0.7,0.5,1.5,0.5,2.2V248.1z"/>
		<path class="st3" d="M522.4,240.3h4.1v11.7h5.1v-11.7h4.1v27.2h-4.1v-12.1h-5.1v12.1h-4.1V240.3z"/>
		<path class="st3" d="M541.4,240.3h4.1v27.2h-4.1V240.3z"/>
		<path class="st3" d="M551,240.3h6.2c1.1,0,2.1,0.1,3,0.4c0.9,0.3,1.7,0.8,2.4,1.5c0.7,0.7,1.2,1.5,1.5,2.5c0.3,1,0.4,2.2,0.4,3.9
			c0,1.2-0.1,2.2-0.2,3.1c-0.1,0.9-0.5,1.7-1,2.4c-0.6,0.9-1.3,1.6-2.3,2.1c-0.9,0.5-2.2,0.7-3.7,0.7h-2.1v10.6H551V240.3z
			 M555.2,253.2h2c0.8,0,1.5-0.1,2-0.3c0.5-0.2,0.8-0.5,1-0.9c0.2-0.4,0.3-0.9,0.4-1.4c0-0.6,0.1-1.2,0.1-1.9c0-0.6,0-1.2-0.1-1.8
			c0-0.6-0.2-1.1-0.4-1.5c-0.2-0.4-0.5-0.8-1-1c-0.4-0.2-1.1-0.4-1.9-0.4h-2.2V253.2z"/>
	</g>
</g>
<g id="eye">
	<path class="st6" d="M553.3,73.1c-12.8,14.9-43.1,25.6-70.5,25.6c-26.7,0-78.6-18-72.3-28c12.8-20.3,42.9-33.1,71.5-33.1
		C510.7,37.7,562,63.1,553.3,73.1z"/>
	<path class="st7" d="M553.3,73.1c-15.8,12.4-39.3,28-67.9,28s-83.6-22.5-74.8-30.4c21.1-18.8,42.9-30.6,71.5-30.6
		C510.7,40.1,563.8,65,553.3,73.1z"/>
		<ellipse class="st7" cx="482.8" cy="68.2" rx="31.2" ry="30.5"/>
		<line class="st7" x1="487.9" y1="100.9" x2="477.8" y2="37.6"/>
		<line class="st7" x1="495.9" y1="98.5" x2="469.8" y2="40"/>
		<line class="st7" x1="503" y1="94.1" x2="462.7" y2="44.4"/>
		<line class="st7" x1="508.8" y1="88.1" x2="456.9" y2="50.5"/>
		<line class="st7" x1="512.7" y1="80.7" x2="452.9" y2="57.8"/>
		<line class="st7" x1="514.7" y1="72.6" x2="451" y2="65.9"/>
		<line class="st7" x1="514.5" y1="64.2" x2="451.2" y2="74.3"/>
		<line class="st7" x1="512.1" y1="56.2" x2="453.6" y2="82.3"/>
		<line class="st7" x1="507.7" y1="49.1" x2="458" y2="89.4"/>
		<line class="st7" x1="501.6" y1="43.3" x2="464" y2="95.2"/>
		<line class="st7" x1="494.3" y1="39.4" x2="471.4" y2="99.2"/>
		<line class="st7" x1="486.2" y1="37.4" x2="479.5" y2="101.1"/>
		<ellipse class="st6" cx="482.8" cy="68.2" rx="15" ry="14.7"/>
		<ellipse class="st5" cx="494.3" cy="53.5" rx="6.3" ry="6.2"/>

</g>
<!-- <line id="line1" class="st7" x1="410.8" y1="211.7" x2="551.7" y2="211.7"/>
<line id="line2" class="st7" x1="353.5" y1="296.4" x2="609.1" y2="296.4"/>
<line id="line3" class="st7" x1="309" y1="381.1" x2="653.6" y2="381.1"/> -->
</svg>
