<?xml version="1.0" encoding="UTF-8" standalone="no"?>
<!DOCTYPE svg  PUBLIC '-//W3C//DTD SVG 1.1//EN'  'http://www.w3.org/Graphics/SVG/1.1/DTD/svg11.dtd'>
<svg xmlns="http://www.w3.org/2000/svg">
<defs>
<font id="DINEngschriftStd-Regular" horiz-adv-x="370">
<font-face underline-position="-50" font-weight="400" descent="-200" panose-1="2 11 6 6 2 2 2 2 2 4" units-per-em="1000" unicode-range="U+0020-25CA" font-stretch="condensed" bbox="-165 -250 1000 937" x-height="507" underline-thickness="50" font-family="DIN Engschrift Std" ascent="800" cap-height="712"/>
<missing-glyph horiz-adv-x="1000"/>
<glyph glyph-name=".notdef" horiz-adv-x="1000"/>
<glyph glyph-name=".null" horiz-adv-x="0"/>
<glyph glyph-name="nonmarkingreturn" horiz-adv-x="333"/>
<glyph glyph-name="space" horiz-adv-x="186" unicode=" "/>
<glyph glyph-name="exclam" horiz-adv-x="240" unicode="!" d="M69 0v102h102v-102h-102zM95 176l-39 536h128l-39 -536h-50z"/>
<glyph glyph-name="quotedbl" horiz-adv-x="278" unicode='&quot;' d="M165 536v176h80v-176h-80zM33 536v176h80v-176h-80z"/>
<glyph glyph-name="numbersign" horiz-adv-x="372" unicode="#" d="M217 275l22 162h-84l-22 -162h84zM180 0l29 215h-84l-29 -215h-68l29 215h-51v60h59l22 162h-50v60h58l29 215h68l-29 -215h84l29 215h68l-29 -215h51v-60h-59l-22 -162h50v-60h-58l-29 -215h-68z"/>
<glyph glyph-name="dollar" horiz-adv-x="372" unicode="$" d="M161 -90v84q-65 8 -107.5 54.5t-42.5 112.5v40h102v-36q0 -58 48 -69v230l-34 14q-63 26 -87 69t-24 114q0 79 37.5 132.5t107.5 62.5v75h51v-75q66 -8 107.5 -55.5t41.5 -105.5v-50h-102v23q0 71 -47 86v-201l42 -17q64 -24 85.5 -67.5t21.5 -127.5q0 -194 -149 -209 v-84h-51zM212 304v-208q30 7 38.5 31.5t8.5 74.5q0 51 -8.5 70t-38.5 32zM161 437v179q-43 -16 -43 -92q0 -39 7.5 -56.5t35.5 -30.5z"/>
<glyph glyph-name="percent" horiz-adv-x="352" unicode="%" d="M21 0l244 712h66l-244 -712h-66zM258 -6q-39 0 -62 21t-23 55v65q0 38 23 60t62 22t62 -22t23 -60v-65q0 -34 -23 -55t-62 -21zM233 131v-51q0 -10 7.5 -18t17.5 -8t17.5 8t7.5 18v51q0 10 -7.5 18t-17.5 8t-17.5 -8t-7.5 -18zM94 495q-39 0 -62 21t-23 55v65q0 38 23 60 t62 22t62 -22t23 -60v-65q0 -34 -23 -55t-62 -21zM94 555q10 0 17.5 8t7.5 18v51q0 10 -7.5 18t-17.5 8t-17.5 -8t-7.5 -18v-51q0 -10 7.5 -18t17.5 -8z"/>
<glyph glyph-name="ampersand" horiz-adv-x="481" unicode="&amp;" d="M162 506q0 -39 39 -103q61 59 61 112q0 20 -13.5 35.5t-35.5 15.5t-36.5 -18t-14.5 -42zM126 164q0 -37 21.5 -63.5t54.5 -26.5q42 0 76 43l-98 156q-54 -56 -54 -109zM353 0l-34 54q-60 -60 -136 -60q-62 0 -104.5 46t-42.5 119q0 97 98 185q-62 88 -62 164 q0 60 36.5 99t102.5 39q63 0 99 -37t36 -92q0 -86 -104 -179q3 -5 38 -62t56 -87l55 75l63 -44l-76 -98l77 -122h-102z"/>
<glyph glyph-name="quotesingle" horiz-adv-x="186" unicode="&apos;" d="M53 536v176h80v-176h-80z"/>
<glyph glyph-name="parenleft" horiz-adv-x="222" unicode="(" d="M169 712h34q-51 -179 -51 -434q0 -193 51 -378h-34q-58 83 -88.5 193.5t-30.5 212.5q0 104 32 213.5t87 192.5z"/>
<glyph glyph-name="parenright" horiz-adv-x="222" unicode=")" d="M53 -100h-34q51 179 51 434q0 193 -51 378h34q58 -83 88.5 -193.5t30.5 -212.5q0 -104 -32 -213.5t-87 -192.5z"/>
<glyph glyph-name="asterisk" d="M31 604l28 52l98 -60l-4 116h64l-4 -116l98 60l28 -52l-100 -56l100 -55l-28 -53l-98 60l4 -116h-64l4 116l-98 -60l-28 53l100 55z" unicode="*"/>
<glyph glyph-name="plus" horiz-adv-x="600" unicode="+" d="M260 293v213h80v-213h213v-80h-213v-213h-80v213h-213v80h213z"/>
<glyph glyph-name="comma" horiz-adv-x="186" unicode="," d="M42 -74v176h102v-102z"/>
<glyph glyph-name="hyphen" horiz-adv-x="389" unicode="-" d="M44 226v102h301v-102h-301z"/>
<glyph glyph-name="period" horiz-adv-x="186" unicode="." d="M42 0v102h102v-102h-102z"/>
<glyph glyph-name="slash" horiz-adv-x="222" unicode="/" d="M5 -6l132 724h80l-132 -724h-80z"/>
<glyph glyph-name="zero" horiz-adv-x="372" unicode="0" d="M136 565v-418q0 -22 14 -36.5t36 -14.5t36 14.5t14 36.5v418q0 22 -14 36.5t-36 14.5t-36 -14.5t-14 -36.5zM34 147v418q0 69 44.5 111t107.5 42t107.5 -42t44.5 -111v-418q0 -69 -44.5 -111t-107.5 -42t-107.5 42t-44.5 111z"/>
<glyph glyph-name="one" horiz-adv-x="372" unicode="1" d="M155 0v604l-102 -75v108l102 75h102v-712h-102z"/>
<glyph glyph-name="two" horiz-adv-x="372" unicode="2" d="M34 0v96l184 347q18 35 18 94q0 18 -1 28t-5 24t-15 20.5t-29 6.5q-23 0 -36.5 -13.5t-13.5 -37.5v-58h-102v56q0 64 44.5 109.5t108.5 45.5q75 0 113 -51t38 -128q0 -54 -5.5 -79t-28.5 -69l-150 -289h184v-102h-304z"/>
<glyph glyph-name="three" horiz-adv-x="372" unicode="3" d="M155 322v90q48 0 64.5 12t16.5 50v92q0 22 -13.5 36t-36.5 14q-25 0 -37.5 -15.5t-12.5 -34.5v-58h-102v59q0 63 45.5 107t108.5 44q70 0 111 -50q22 -26 30.5 -56t8.5 -95q0 -74 -10 -98.5t-53 -50.5q45 -28 54 -55t9 -108q0 -68 -5.5 -95t-21.5 -51q-44 -65 -126 -65 q-58 0 -104.5 37.5t-46.5 114.5v58h102v-53q0 -24 13.5 -39.5t36.5 -15.5t36.5 15.5t13.5 41.5v102q0 41 -15.5 54t-65.5 13z"/>
<glyph glyph-name="four" horiz-adv-x="372" unicode="4" d="M212 0v106h-203v96l147 510h108l-153 -510h101v203h102v-203h49v-96h-49v-106h-102z"/>
<glyph glyph-name="five" horiz-adv-x="372" unicode="5" d="M338 712v-96h-202v-192q35 33 85 33q53 0 85 -33t32 -93v-184q0 -69 -44.5 -111t-107.5 -42t-107.5 42t-44.5 111v30h102v-26q0 -26 14.5 -40.5t37.5 -14.5q22 0 35 14t13 39v167q0 21 -13.5 36t-34.5 15q-16 0 -28 -8.5t-15 -14l-9 -16.5h-90v384h292z"/>
<glyph glyph-name="six" horiz-adv-x="372" unicode="6" d="M236 147v132q0 22 -15 36.5t-35 14.5t-35 -14.5t-15 -36.5v-132q0 -22 15 -36.5t35 -14.5t35 14.5t15 36.5zM301 712l-116 -299l2 -2q13 9 43 9q56 0 86 -46q14 -21 18 -51.5t4 -114.5q0 -69 -4 -95t-19 -50q-41 -69 -129 -69q-85 0 -128 69q-15 24 -19.5 50t-4.5 95 q0 62 4 88.5t15 57.5l134 358h114z"/>
<glyph glyph-name="seven" horiz-adv-x="372" unicode="7" d="M57 0l179 616h-112v-82h-90v178h304v-102l-173 -610h-108z"/>
<glyph glyph-name="eight" horiz-adv-x="372" unicode="8" d="M236 146v140q0 21 -15 35.5t-35 14.5t-35 -14.5t-15 -35.5v-140q0 -21 15 -35.5t35 -14.5t35 14.5t15 35.5zM34 526q0 56 8 83t29 54q42 55 115 55t115 -55q21 -27 29 -54t8 -83q0 -69 -8 -96.5t-43 -55.5q35 -26 43 -57t8 -118q0 -63 -6 -90.5t-22 -51.5 q-41 -63 -124 -63t-124 63q-16 24 -22 51.5t-6 90.5q0 87 8 118t43 57q-35 28 -43 55.5t-8 96.5zM236 462v104q0 21 -15 35.5t-35 14.5t-35 -14.5t-15 -35.5v-104q0 -21 15 -35.5t35 -14.5t35 14.5t15 35.5z"/>
<glyph glyph-name="nine" horiz-adv-x="372" unicode="9" d="M136 565v-132q0 -22 15 -36.5t35 -14.5t35 14.5t15 36.5v132q0 22 -15 36.5t-35 14.5t-35 -14.5t-15 -36.5zM71 0l116 299l-2 2q-13 -9 -43 -9q-56 0 -86 46q-14 21 -18 51.5t-4 114.5q0 69 4 95t19 50q41 69 129 69q85 0 128 -69q15 -24 19.5 -50t4.5 -95 q0 -62 -4 -88.5t-15 -57.5l-134 -358h-114z"/>
<glyph glyph-name="colon" horiz-adv-x="186" unicode=":" d="M42 227v102h102v-102h-102zM42 0v102h102v-102h-102z"/>
<glyph glyph-name="semicolon" horiz-adv-x="186" unicode=";" d="M42 227v102h102v-102h-102zM42 -74v176h102v-102z"/>
<glyph glyph-name="less" horiz-adv-x="600" unicode="&lt;" d="M553 514v-80l-397 -181l397 -181v-80l-506 231v60z"/>
<glyph glyph-name="equal" horiz-adv-x="600" unicode="=" d="M47 113v80h506v-80h-506zM47 313v80h506v-80h-506z"/>
<glyph glyph-name="greater" horiz-adv-x="600" unicode="&gt;" d="M47 -8v80l397 181l-397 181v80l506 -231v-60z"/>
<glyph glyph-name="question" d="M134 0v102h102v-102h-102zM32 507v59q0 63 45 107.5t109 44.5q75 0 118 -57q20 -27 27 -51.5t7 -70.5q0 -87 -16 -114l-69 -118q-17 -30 -17 -51v-80h-102v93q0 39 25 81l64 104q13 22 13 58v53q0 21 -14.5 36t-35.5 15q-20 0 -36 -14t-16 -37v-58h-102z" unicode="?"/>
<glyph glyph-name="at" horiz-adv-x="800" unicode="@" d="M639 548l-87 -275q-10 -30 -10 -45q0 -29 23 -29q47 0 91.5 71t44.5 144q0 103 -79.5 170.5t-188.5 67.5q-124 0 -213 -90t-89 -209q0 -123 89 -208t218 -85q71 0 139 30.5t104 74.5h77q-48 -80 -136.5 -125.5t-191.5 -45.5q-158 0 -267 104t-109 260q0 149 111.5 254.5 t266.5 105.5q144 0 245 -85t101 -214q0 -59 -23.5 -113.5t-58.5 -89.5t-74 -56t-72 -21q-70 0 -78 63h-2q-19 -20 -31.5 -31t-37 -21.5t-53.5 -10.5q-63 0 -103 44t-40 108q0 67 28.5 129.5t83.5 103.5t122 41q38 0 69.5 -19.5t45.5 -58.5h2l20 61h63zM513 410 q0 37 -19.5 60t-54.5 23q-62 0 -108 -63.5t-46 -131.5q0 -41 22.5 -64t60.5 -23q54 0 99.5 67.5t45.5 131.5z"/>
<glyph glyph-name="A" horiz-adv-x="407" unicode="A" d="M2 0l159 712h85l159 -712h-102l-30 153h-139l-30 -153h-102zM254 249l-50 258h-2l-50 -258h102z"/>
<glyph glyph-name="B" horiz-adv-x="426" unicode="B" d="M150 616v-196h46q49 0 67.5 24t18.5 76q0 49 -20.5 72.5t-69.5 23.5h-42zM150 330v-228h44q56 0 72 29t16 91q0 58 -17.5 83t-69.5 25h-45zM48 0v712h149q93 0 137 -51.5t44 -128.5v-26q0 -53 -16.5 -81t-53.5 -51q70 -34 70 -140v-40q0 -194 -191 -194h-139z"/>
<glyph glyph-name="C" horiz-adv-x="407" unicode="C" d="M372 203v-44q0 -67 -47.5 -116t-114.5 -49q-69 0 -118.5 39.5t-49.5 128.5v392q0 71 46.5 117.5t119.5 46.5q71 0 117.5 -48t46.5 -122v-40h-102v34q0 31 -17.5 52.5t-45.5 21.5q-36 0 -49.5 -21.5t-13.5 -61.5v-364q0 -73 62 -73q25 0 44.5 17t19.5 55v35h102z"/>
<glyph glyph-name="D" horiz-adv-x="426" unicode="D" d="M150 616v-520h47q42 0 60.5 21.5t18.5 67.5v343q0 44 -18 66t-61 22h-47zM48 0v712h151q86 0 132.5 -48.5t46.5 -135.5v-333q0 -98 -48.5 -146.5t-139.5 -48.5h-142z"/>
<glyph glyph-name="E" d="M48 0v712h304v-96h-202v-209h176v-96h-176v-209h202v-102h-304z" unicode="E"/>
<glyph glyph-name="F" d="M48 0v712h304v-96h-202v-216h176v-96h-176v-304h-102z" unicode="F"/>
<glyph glyph-name="G" horiz-adv-x="426" unicode="G" d="M42 168v376q0 82 51.5 128t119.5 46t119.5 -46t51.5 -128v-36h-102v36q0 35 -19.5 53.5t-49.5 18.5t-49.5 -18.5t-19.5 -53.5v-376q0 -35 19.5 -53.5t49.5 -18.5t49.5 18.5t19.5 53.5v134h-81v90h183v-224q0 -82 -51.5 -128t-119.5 -46t-119.5 46t-51.5 128z"/>
<glyph glyph-name="H" horiz-adv-x="426" unicode="H" d="M48 0v712h102v-305h126v305h102v-712h-102v317h-126v-317h-102z"/>
<glyph glyph-name="I" horiz-adv-x="204" unicode="I" d="M51 0v712h102v-712h-102z"/>
<glyph glyph-name="J" horiz-adv-x="333" unicode="J" d="M285 712v-544q0 -73 -47.5 -123.5t-126.5 -50.5q-76 0 -133 64l80 64q26 -26 56 -26q26 0 47.5 19.5t21.5 66.5v530h102z"/>
<glyph glyph-name="K" horiz-adv-x="426" unicode="K" d="M48 0v712h102v-325h2l149 325h102l-139 -285l165 -427h-108l-116 316l-55 -103v-213h-102z"/>
<glyph glyph-name="L" d="M48 0v712h102v-610h202v-102h-304z" unicode="L"/>
<glyph glyph-name="M" horiz-adv-x="556" unicode="M" d="M48 0v712h98l131 -377h2l130 377h99v-712h-102v433h-2l-101 -306h-51l-100 306h-2v-433h-102z"/>
<glyph glyph-name="N" horiz-adv-x="444" unicode="N" d="M44 0v712h98l154 -429h2v429h102v-712h-96l-156 428h-2v-428h-102z"/>
<glyph glyph-name="O" horiz-adv-x="426" unicode="O" d="M144 544v-376q0 -35 19.5 -53.5t49.5 -18.5t49.5 18.5t19.5 53.5v376q0 35 -19.5 53.5t-49.5 18.5t-49.5 -18.5t-19.5 -53.5zM42 168v376q0 82 51.5 128t119.5 46t119.5 -46t51.5 -128v-376q0 -82 -51.5 -128t-119.5 -46t-119.5 46t-51.5 128z"/>
<glyph glyph-name="P" horiz-adv-x="407" unicode="P" d="M150 616v-242h49q24 0 40.5 6.5t25 15t13 26.5t5 31.5t0.5 40.5q0 26 -0.5 39t-4.5 32t-12 28t-24 16t-39 7h-53zM48 0v712h153q85 0 132 -50q26 -27 36 -64.5t10 -102.5q0 -96 -29 -143q-45 -74 -148 -74h-52v-278h-102z"/>
<glyph glyph-name="Q" horiz-adv-x="426" unicode="Q" d="M42 168v376q0 82 51.5 128t119.5 46t119.5 -46t51.5 -128v-376q0 -42 -15 -73l63 -51l-52 -62l-60 49q-46 -37 -107 -37q-68 0 -119.5 46t-51.5 128zM144 544v-376q0 -35 19.5 -53.5t49.5 -18.5q13 0 22 4l-46 37l52 62l41 -33v2v376q0 35 -19.5 53.5t-49.5 18.5 t-49.5 -18.5t-19.5 -53.5z"/>
<glyph glyph-name="R" horiz-adv-x="426" unicode="R" d="M48 0v712h164q180 0 180 -209q0 -129 -88 -178l110 -325h-108l-95 304h-61v-304h-102zM150 616v-222h58q50 0 66 26t16 85t-17 85t-70 26h-53z"/>
<glyph glyph-name="S" horiz-adv-x="406" unicode="S" d="M378 557v-50h-102v23q0 38 -17.5 62t-54.5 24q-69 0 -69 -92q0 -44 10 -62t48 -33l78 -31q64 -24 85.5 -67.5t21.5 -127.5q0 -209 -176 -209q-74 0 -124 48.5t-50 120.5v38h102v-32q0 -31 18 -52t54 -21q47 0 60.5 24.5t13.5 81.5q0 56 -10.5 74.5t-48.5 33.5l-73 30 q-63 26 -87 69t-24 114q0 85 45.5 140t129.5 55q73 0 121.5 -49.5t48.5 -111.5z"/>
<glyph glyph-name="T" horiz-adv-x="332" unicode="T" d="M115 0v616h-118v96h338v-96h-118v-616h-102z"/>
<glyph glyph-name="U" horiz-adv-x="426" unicode="U" d="M378 712v-552q0 -70 -48 -118t-117 -48t-117 48t-48 118v552h102v-542q0 -36 17.5 -55t45.5 -19t45.5 19t17.5 55v542h102z"/>
<glyph glyph-name="V" horiz-adv-x="407" unicode="V" d="M394 712l-146 -712h-90l-145 712h108l81 -497h2l82 497h108z"/>
<glyph glyph-name="W" horiz-adv-x="593" unicode="W" d="M577 712l-106 -712h-96l-78 462h-2l-77 -462h-96l-106 712h108l51 -452h2l80 452h78l83 -463h2l49 463h108z"/>
<glyph glyph-name="X" horiz-adv-x="389" unicode="X" d="M-2 0l144 373l-133 339h108l77 -211l78 211h108l-136 -339l147 -373h-108l-89 240l-88 -240h-108z"/>
<glyph glyph-name="Y" horiz-adv-x="388" unicode="Y" d="M143 0v301l-140 411h108l82 -283h2l82 283h108l-140 -411v-301h-102z"/>
<glyph glyph-name="Z" horiz-adv-x="333" unicode="Z" d="M15 0v90l192 526h-182v96h293v-81l-196 -535h196v-96h-303z"/>
<glyph glyph-name="bracketleft" horiz-adv-x="222" unicode="[" d="M214 712v-60h-66v-692h66v-60h-156v812h156z"/>
<glyph glyph-name="backslash" horiz-adv-x="222" unicode="\" d="M85 718l132 -724h-80l-132 724h80z"/>
<glyph glyph-name="bracketright" horiz-adv-x="222" unicode="]" d="M8 -100v60h66v692h-66v60h156v-812h-156z"/>
<glyph glyph-name="asciicircum" horiz-adv-x="600" unicode="^" d="M50 283l217 429h66l217 -429h-80l-170 339l-170 -339h-80z"/>
<glyph glyph-name="underscore" horiz-adv-x="500" unicode="_" d="M0 -125v50h500v-50h-500z"/>
<glyph glyph-name="grave" horiz-adv-x="186" unicode="`" d="M68 715l90 -141h-66l-132 141h108z"/>
<glyph glyph-name="a" d="M235 149v69q-17 3 -28 3q-80 0 -80 -72q0 -30 14 -47.5t39 -17.5q26 0 40.5 17t14.5 48zM235 0v52h-2q-23 -31 -43.5 -44.5t-54.5 -13.5q-45 0 -77.5 30t-32.5 105q0 91 34.5 131.5t126.5 40.5q8 0 24 -1.5t25 -1.5v53q0 60 -51 60q-21 0 -37.5 -13.5t-20.5 -37.5h-99 q5 69 46 110q43 43 111 43q67 0 110 -41.5t43 -118.5v-353h-102z" unicode="a"/>
<glyph glyph-name="b" horiz-adv-x="389" unicode="b" d="M245 165v186q0 60 -50 60q-22 0 -36.5 -15.5t-14.5 -39.5v-197q0 -28 14 -45.5t37 -17.5q50 0 50 69zM42 0v712h102v-251h2q35 52 94 52q62 0 91 -46q16 -26 16 -123v-193q0 -78 -17 -109q-26 -48 -89 -48q-24 0 -43 8t-28 16.5t-26 27.5v-46h-102z"/>
<glyph glyph-name="c" d="M150 353v-207q0 -24 13.5 -37t36.5 -13q45 0 50 51h102q0 -65 -41 -108q-43 -45 -111 -45q-93 0 -133 73q-19 35 -19 103v167q0 68 19 103q40 73 133 73q69 0 110.5 -45t41.5 -117h-102q0 60 -50 60t-50 -58z" unicode="c"/>
<glyph glyph-name="d" horiz-adv-x="389" unicode="d" d="M245 0v46q-17 -19 -26 -27.5t-28 -16.5t-43 -8q-63 0 -89 48q-17 31 -17 109v193q0 97 16 123q29 46 91 46q59 0 94 -52h2v251h102v-712h-102zM144 351v-186q0 -69 50 -69q23 0 37 17.5t14 45.5v197q0 24 -14.5 39.5t-36.5 15.5q-50 0 -50 -60z"/>
<glyph glyph-name="e" d="M135 353v-58h100v58q0 58 -50 58t-50 -58zM337 215h-202v-69q0 -24 13.5 -37t36.5 -13q45 0 50 51h102q0 -65 -41 -108q-43 -45 -111 -45q-93 0 -133 73q-19 35 -19 103v167q0 68 19 103q40 73 133 73q69 0 110.5 -45t41.5 -113v-140z" unicode="e"/>
<glyph glyph-name="f" horiz-adv-x="222" unicode="f" d="M55 0v427h-50v80h50v69q0 69 38 102.5t93 33.5h47v-96h-46q-30 0 -30 -35v-74h76v-80h-76v-427h-102z"/>
<glyph glyph-name="g" horiz-adv-x="389" unicode="g" d="M144 342v-186q0 -60 50 -60q22 0 36.5 15.5t14.5 39.5v197q0 28 -14 45.5t-37 17.5q-50 0 -50 -69zM42 -59h102q1 -20 15 -35t39 -15q47 0 47 55v100h-2q-35 -52 -95 -52q-63 0 -89 48q-17 31 -17 109v193q0 97 16 123q29 46 91 46q24 0 42.5 -8t27.5 -16.5t26 -27.5v46 h102v-569q0 -59 -39 -104t-114 -45q-55 0 -99 36t-53 116z"/>
<glyph glyph-name="h" horiz-adv-x="389" unicode="h" d="M42 0v712h102v-254h2q36 55 96 55q43 0 74 -30.5t31 -93.5v-389h-102v351q0 28 -13 44t-37 16q-51 0 -51 -70v-341h-102z"/>
<glyph glyph-name="i" horiz-adv-x="186" unicode="i" d="M42 610v102h102v-102h-102zM42 0v507h102v-507h-102z"/>
<glyph glyph-name="j" horiz-adv-x="186" unicode="j" d="M42 610v102h102v-102h-102zM42 -16v523h102v-561q0 -73 -45.5 -112t-120.5 -39v96q37 0 50.5 19t13.5 74z"/>
<glyph glyph-name="k" horiz-adv-x="389" unicode="k" d="M42 0v712h102v-426h2l123 221h102l-121 -206l146 -301h-111l-92 219l-49 -77v-142h-102z"/>
<glyph glyph-name="l" horiz-adv-x="186" unicode="l" d="M36 136v576h102v-569q0 -28 10.5 -39t39.5 -14v-96q-77 0 -114.5 29.5t-37.5 112.5z"/>
<glyph glyph-name="m" horiz-adv-x="592" unicode="m" d="M42 0v507h102v-49h2q36 55 96 55q54 0 91 -51q22 25 45.5 38t60.5 13q44 0 77.5 -30.5t33.5 -93.5v-389h-102v351q0 28 -13 44t-37 16q-51 0 -51 -70v-341h-102v351q0 28 -13 44t-37 16q-51 0 -51 -70v-341h-102z"/>
<glyph glyph-name="n" horiz-adv-x="389" unicode="n" d="M42 0v507h102v-49h2q36 55 96 55q43 0 74 -30.5t31 -93.5v-389h-102v351q0 28 -13 44t-37 16q-51 0 -51 -70v-341h-102z"/>
<glyph glyph-name="o" d="M135 353v-199q0 -58 50 -58t50 58v199q0 58 -50 58t-50 -58zM33 170v167q0 68 19 103q40 73 133 73t133 -73q19 -35 19 -103v-167q0 -68 -19 -103q-40 -73 -133 -73t-133 73q-19 35 -19 103z" unicode="o"/>
<glyph glyph-name="p" horiz-adv-x="389" unicode="p" d="M245 156v186q0 69 -50 69q-23 0 -37 -17.5t-14 -45.5v-197q0 -24 14.5 -39.5t36.5 -15.5q50 0 50 60zM42 -205v712h102v-46q17 19 26 27.5t28 16.5t43 8q63 0 89 -48q17 -31 17 -109v-193q0 -97 -16 -123q-29 -46 -91 -46q-59 0 -94 52h-2v-251h-102z"/>
<glyph glyph-name="q" horiz-adv-x="389" unicode="q" d="M144 342v-186q0 -60 50 -60q22 0 36.5 15.5t14.5 39.5v197q0 28 -14 45.5t-37 17.5q-50 0 -50 -69zM245 -205v251h-2q-35 -52 -94 -52q-62 0 -91 46q-16 26 -16 123v193q0 78 17 109q26 48 89 48q24 0 43 -8t28 -16.5t26 -27.5v46h102v-712h-102z"/>
<glyph glyph-name="r" horiz-adv-x="278" unicode="r" d="M42 0v507h102v-54q36 31 65 45.5t70 14.5v-108q-15 6 -31 6q-39 0 -71.5 -27t-32.5 -83v-301h-102z"/>
<glyph glyph-name="s" horiz-adv-x="352" unicode="s" d="M323 365h-96q-1 24 -16 38t-36 14q-23 0 -36.5 -15t-13.5 -36q0 -35 43 -52l60 -24q100 -38 100 -143q0 -64 -43.5 -108.5t-108.5 -44.5q-63 0 -106 40.5t-46 112.5h96q8 -57 55 -57q23 0 40 15.5t17 39.5q0 42 -51 62l-49 18q-103 39 -103 140q0 64 44 106t106 42 t102.5 -42.5t41.5 -105.5z"/>
<glyph glyph-name="t" horiz-adv-x="204" unicode="t" d="M42 507v154h102v-154h63v-80h-63v-281q0 -33 13 -41.5t50 -8.5v-96h-42q-63 0 -93 36t-30 83v308h-51v80h51z"/>
<glyph glyph-name="u" horiz-adv-x="389" unicode="u" d="M347 507v-507h-102v49h-2q-36 -55 -96 -55q-43 0 -74 30.5t-31 93.5v389h102v-351q0 -28 13 -44t37 -16q51 0 51 70v341h102z"/>
<glyph glyph-name="v" horiz-adv-x="352" unicode="v" d="M353 507l-132 -507h-90l-132 507h108l68 -324h2l68 324h108z"/>
<glyph glyph-name="w" horiz-adv-x="536" unicode="w" d="M535 507l-120 -507h-90l-56 301h-2l-56 -301h-90l-120 507h108l62 -315h2l57 315h80l54 -315h2l61 315h108z"/>
<glyph glyph-name="x" horiz-adv-x="332" unicode="x" d="M-11 0l125 259l-119 248h108l63 -144l63 144h108l-121 -248l127 -259h-108l-69 155l-69 -155h-108z"/>
<glyph glyph-name="y" horiz-adv-x="352" unicode="y" d="M-1 507h108l70 -316h2l69 316h105l-146 -595q-28 -117 -141 -117h-28v96h23q32 0 46 23t31 109z"/>
<glyph glyph-name="z" horiz-adv-x="315" unicode="z" d="M17 0v81l165 336h-152v90h268v-81l-165 -330h165v-96h-281z"/>
<glyph glyph-name="braceleft" horiz-adv-x="222" unicode="{" d="M3 277v60q28 0 46 31.5t18 80.5v152q0 51 28.5 81t69.5 30h54v-60h-18q-44 0 -44 -66v-151q0 -60 -21.5 -91.5t-47.5 -36.5v-2q26 -5 47.5 -36t21.5 -93v-149q0 -67 44 -67h18v-60h-54q-41 0 -69.5 30t-28.5 81v151q0 50 -18 82.5t-46 32.5z"/>
<glyph glyph-name="bar" horiz-adv-x="222" unicode="|" d="M71 -250v1000h80v-1000h-80z"/>
<glyph glyph-name="braceright" horiz-adv-x="222" unicode="}" d="M219 337v-60q-28 0 -46 -32.5t-18 -82.5v-151q0 -51 -28.5 -81t-69.5 -30h-54v60h18q44 0 44 67v149q0 62 21.5 93t47.5 36v2q-26 5 -47.5 36.5t-21.5 91.5v151q0 66 -44 66h-18v60h54q41 0 69.5 -30t28.5 -81v-152q0 -49 18 -80.5t46 -31.5z"/>
<glyph glyph-name="asciitilde" horiz-adv-x="600" unicode="~" d="M495 330l36 -65q-46 -87 -125 -87q-41 0 -111 33q-7 3 -21.5 9.5t-23 10t-20 8t-20.5 6.5t-17 2q-19 0 -36.5 -12t-26.5 -24t-25 -35l-36 64q46 87 125 87q41 0 111 -33q7 -3 21.5 -9.5t23 -10t20 -8t20.5 -6.5t17 -2q19 0 36.5 12t27 24.5t24.5 35.5z"/>
<glyph glyph-name="uni00A0" horiz-adv-x="186" unicode=" "/>
<glyph glyph-name="exclamdown" horiz-adv-x="240" unicode="¡" d="M69 405v102h102v-102h-102zM56 -205l39 536h50l39 -536h-128z"/>
<glyph glyph-name="cent" horiz-adv-x="372" unicode="¢" d="M164 -90v84q-76 6 -111 70q-19 35 -19 103v172q0 68 19 103q34 63 111 71v75h41v-75q61 -5 97 -49.5t36 -112.5h-102q0 49 -31 60v-315q27 9 31 51h102q0 -67 -41 -110q-37 -39 -92 -43v-84h-41zM164 96v315q-12 -4 -20 -19q-8 -14 -8 -35v-215q0 -36 28 -46z"/>
<glyph glyph-name="sterling" horiz-adv-x="372" unicode="£" d="M13 298v71h55q-38 71 -38 152q0 86 40.5 141.5t121.5 55.5q57 0 102.5 -42t45.5 -121v-45h-96v40q0 72 -55 72q-63 0 -63 -102q0 -67 32 -151h116v-71h-93q18 -50 18 -88q0 -53 -32 -109q7 -1 23.5 -4t31.5 -5t27 -2q40 0 66 32l68 -69q-43 -59 -111 -59q-18 0 -82.5 9.5 t-87.5 9.5q-44 0 -79 -16v86q28 17 64 20q27 40 27 87q0 49 -23 108h-78z"/>
<glyph glyph-name="currency" horiz-adv-x="372" unicode="¤" d="M77 356q0 -45 32 -77t77 -32t77 32t32 77t-32 77t-77 32t-77 -32t-32 -77zM4 214l42 42q-35 37 -35 100t34 100l-41 42l41 41l41 -42q39 34 100 34q62 0 101 -34l41 42l40 -41l-41 -41q34 -39 34 -101q0 -63 -34 -100l41 -41l-41 -41l-41 41q-37 -34 -100 -34 q-62 0 -100 35l-41 -42z"/>
<glyph glyph-name="yen" horiz-adv-x="372" unicode="¥" d="M138 0v172h-114v66h114v49h-114v66h98l-118 359h102l79 -283h2l79 283h102l-118 -359h98v-66h-114v-49h114v-66h-114v-172h-96z"/>
<glyph glyph-name="brokenbar" horiz-adv-x="222" unicode="¦" d="M71 325v350h80v-350h-80zM71 -175v350h80v-350h-80z"/>
<glyph glyph-name="section" d="M135 312v-99q0 -22 14.5 -37.5t35.5 -15.5q20 0 35 15.5t15 37.5v99q0 22 -15 37.5t-35 15.5q-21 0 -35.5 -15.5t-14.5 -37.5zM325 581v-46h-85v42q0 25 -13.5 43t-36.5 18q-52 0 -52 -73q0 -37 7.5 -50t39.5 -34l97 -63q36 -23 45.5 -51.5t9.5 -107.5q0 -76 -14.5 -105 t-72.5 -56q49 -25 62 -51.5t13 -89.5q0 -78 -25 -114q-17 -25 -48.5 -39.5t-65.5 -14.5q-51 0 -85 24.5t-46 55t-12 63.5v42h85v-41q0 -27 15.5 -45.5t39.5 -18.5q30 0 43.5 19t13.5 59q0 37 -6 51.5t-26 26.5l-118 72q-37 23 -47 54.5t-10 107.5q0 86 18 120t74 51 q-47 23 -59.5 50t-12.5 84q0 75 39 114.5t98 39.5q54 0 94.5 -36t40.5 -101z" unicode="§"/>
<glyph glyph-name="dieresis" horiz-adv-x="186" unicode="¨" d="M129 586v102h90v-102h-90zM-33 586v102h90v-102h-90z"/>
<glyph glyph-name="copyright" horiz-adv-x="800" unicode="©" d="M38 356q0 150 106 256t256 106t256 -106t106 -256t-106 -256t-256 -106t-256 106t-106 256zM690 356q0 122 -85 209t-205 87t-205 -87t-85 -209t85 -209t205 -87t205 87t85 209zM524 287h66q-13 -70 -62 -113t-115 -43q-96 0 -155 64.5t-59 160.5q0 100 57 163t154 63 q70 0 120.5 -40t59.5 -111h-66q-8 36 -39.5 60.5t-73.5 24.5q-65 0 -102.5 -45t-37.5 -113q0 -65 40 -113t102 -48q42 0 73 26t38 64z"/>
<glyph glyph-name="ordfeminine" horiz-adv-x="240" unicode="ª" d="M154 504v37q-14 2 -18 2q-50 0 -50 -44q0 -29 32 -29q16 0 26 9.5t10 24.5zM154 410v31h-2q-27 -35 -63 -35q-30 0 -52.5 18t-22.5 64q0 55 24 80.5t84 25.5q4 0 32 -2v24q0 36 -33 36t-37 -30h-66q3 44 30 70q29 26 73 26t74.5 -25.5t30.5 -70.5v-212h-72z"/>
<glyph glyph-name="guillemotleft" horiz-adv-x="426" unicode="«" d="M213 479v-102l-101 -100l101 -100v-102l-203 202zM398 479v-102l-101 -100l101 -100v-102l-203 202z"/>
<glyph glyph-name="logicalnot" horiz-adv-x="600" unicode="¬" d="M473 113v200h-426v80h506v-280h-80z"/>
<glyph glyph-name="uni00AD" horiz-adv-x="389" unicode="­" d="M44 226v102h301v-102h-301z"/>
<glyph glyph-name="registered" horiz-adv-x="800" unicode="®" d="M38 356q0 150 106 256t256 106t256 -106t106 -256t-106 -256t-256 -106t-256 106t-106 256zM690 356q0 122 -85 209t-205 87t-205 -87t-85 -209t85 -209t205 -87t205 87t85 209zM263 145v422h160q145 0 145 -119q0 -105 -108 -118l121 -185h-80l-121 183h-51v-183h-66z M329 507v-119h75q98 0 98 63q0 56 -77 56h-96z"/>
<glyph glyph-name="macron" horiz-adv-x="186" unicode="¯" d="M-44 607v60h274v-60h-274z"/>
<glyph glyph-name="degree" horiz-adv-x="260" unicode="°" d="M18 606q0 46 33 79t79 33t79 -33t33 -79t-33 -79t-79 -33t-79 33t-33 79zM69 606q0 -26 17.5 -43.5t43.5 -17.5t43.5 17.5t17.5 43.5t-17.5 43.5t-43.5 17.5t-43.5 -17.5t-17.5 -43.5z"/>
<glyph glyph-name="plusminus" horiz-adv-x="600" unicode="±" d="M47 0v80h506v-80h-506zM260 104v161h-213v80h213v161h80v-161h213v-80h-213v-161h-80z"/>
<glyph glyph-name="twosuperior" horiz-adv-x="242" unicode="²" d="M11 584v36q0 42 31.5 70t78.5 28q46 0 78 -26t32 -65v-33q0 -37 -23 -75l-95 -160h118v-72h-220v54l128 212q12 21 12 39v23q0 14 -9.5 22.5t-21.5 8.5t-20.5 -8.5t-8.5 -22.5v-31h-80z"/>
<glyph glyph-name="threesuperior" horiz-adv-x="242" unicode="³" d="M100 474v66q30 0 40 6.5t11 27.5v42q0 13 -8.5 21.5t-21.5 8.5q-14 0 -22 -9.5t-8 -20.5v-26h-80v32q0 42 31.5 69t80.5 27q52 0 80 -30t28 -70v-41q0 -25 -8 -40.5t-33 -28.5q41 -24 41 -73v-51q0 -41 -28 -71t-82 -30q-46 0 -78 22.5t-32 71.5v34h80v-23q0 -15 8 -24 t22 -9q12 0 21 9t9 21v52q0 22 -10 29.5t-41 7.5z"/>
<glyph glyph-name="acute" horiz-adv-x="186" unicode="´" d="M28 574l90 141h108l-132 -141h-66z"/>
<glyph glyph-name="mu" horiz-adv-x="389" unicode="µ" d="M347 507v-507h-102v49h-2q-12 -26 -32 -42q-17 -13 -34 -13q-21 0 -31 10h-2v-209h-102v712h102v-351q0 -28 13 -44t37 -16q51 0 51 70v341h102z"/>
<glyph glyph-name="paragraph" horiz-adv-x="444" unicode="¶" d="M182 -205v539q-67 0 -120.5 55t-53.5 131q0 95 58.5 143.5t159.5 48.5h172v-917h-72v866h-72v-866h-72z"/>
<glyph glyph-name="periodcentered" horiz-adv-x="186" unicode="·" d="M29 298q0 26 19 45t45 19t45 -19t19 -45t-19 -45t-45 -19t-45 19t-19 45z"/>
<glyph glyph-name="cedilla" horiz-adv-x="186" unicode="¸" d="M20 -86l65 86h46l-46 -60q20 2 31 2q45 0 65 -23t20 -52q0 -45 -37.5 -68t-85.5 -23q-41 0 -93 19l17 42q39 -15 65 -15q54 0 54 41q0 17 -13.5 27.5t-31.5 10.5q-21 0 -39 -7z"/>
<glyph glyph-name="onesuperior" horiz-adv-x="242" unicode="¹" d="M93 287v353l-66 -43v72l66 43h80v-425h-80z"/>
<glyph glyph-name="ordmasculine" horiz-adv-x="240" unicode="º" d="M90 617v-111q0 -34 30 -34t30 34v111q0 35 -30 35t-30 -35zM18 505v114q0 43 28 71t74 28t74 -28t28 -71v-114q0 -43 -28 -71t-74 -28t-74 28t-28 71z"/>
<glyph glyph-name="guillemotright" horiz-adv-x="426" unicode="»" d="M28 75v102l101 100l-101 100v102l203 -202zM213 75v102l101 100l-101 100v102l203 -202z"/>
<glyph glyph-name="onequarter" horiz-adv-x="555" unicode="¼" d="M434 0v62h-143v62l98 303h80l-94 -299h59v115h80v-115h30v-66h-30v-62h-80zM77 287v353l-66 -43v72l66 43h80v-425h-80zM18 -17l437 746h60l-437 -746h-60z"/>
<glyph glyph-name="onehalf" horiz-adv-x="555" unicode="½" d="M322 0v54l130 212q12 21 12 39v23q0 14 -9.5 22.5t-21.5 8.5q-13 0 -22 -8.5t-9 -22.5v-31h-80v36q0 42 32 70t80 28q46 0 78 -26t32 -65v-33q0 -37 -23 -75l-95 -160h118v-72h-222zM77 287v353l-66 -43v72l66 43h80v-425h-80zM18 -17l437 746h60l-437 -746h-60z"/>
<glyph glyph-name="threequarters" horiz-adv-x="555" unicode="¾" d="M434 0v62h-143v62l98 303h80l-94 -299h59v115h80v-115h30v-66h-30v-62h-80zM100 474v66q30 0 40 6.5t11 27.5v42q0 13 -8.5 21.5t-21.5 8.5q-14 0 -22 -9.5t-8 -20.5v-26h-80v32q0 42 31.5 69t80.5 27q52 0 80 -30t28 -70v-41q0 -25 -8 -40.5t-33 -28.5q41 -24 41 -73 v-51q0 -41 -28 -71t-82 -30q-46 0 -78 22.5t-32 71.5v34h80v-23q0 -15 8 -24t22 -9q12 0 21 9t9 21v52q0 22 -10 29.5t-41 7.5zM37 -17l437 746h60l-437 -746h-60z"/>
<glyph glyph-name="questiondown" d="M236 507v-102h-102v102h102zM338 0v-59q0 -63 -45 -107.5t-109 -44.5q-75 0 -118 57q-20 27 -27 51.5t-7 70.5q0 87 16 114l69 118q17 30 17 51v80h102v-93q0 -39 -25 -81l-64 -104q-13 -22 -13 -58v-53q0 -21 14.5 -36t35.5 -15q20 0 36 14t16 37v58h102z" unicode="¿"/>
<glyph glyph-name="Agrave" horiz-adv-x="407" unicode="À" d="M179 885l90 -141h-66l-132 141h108zM2 0l159 712h85l159 -712h-102l-30 153h-139l-30 -153h-102zM254 249l-50 258h-2l-50 -258h102z"/>
<glyph glyph-name="Aacute" horiz-adv-x="407" unicode="Á" d="M139 744l90 141h108l-132 -141h-66zM2 0l159 712h85l159 -712h-102l-30 153h-139l-30 -153h-102zM254 249l-50 258h-2l-50 -258h102z"/>
<glyph glyph-name="Acircumflex" horiz-adv-x="407" unicode="Â" d="M59 744l98 141h94l98 -141h-78l-67 95l-67 -95h-78zM2 0l159 712h85l159 -712h-102l-30 153h-139l-30 -153h-102zM254 249l-50 258h-2l-50 -258h102z"/>
<glyph glyph-name="Atilde" horiz-adv-x="407" unicode="Ã" d="M323 869h51q-22 -111 -101 -111q-17 0 -75 20t-69 20q-20 0 -31.5 -12.5t-12.5 -32.5h-51q22 111 101 111q17 0 75.5 -20t68.5 -20q20 0 31.5 12.5t12.5 32.5zM2 0l159 712h85l159 -712h-102l-30 153h-139l-30 -153h-102zM254 249l-50 258h-2l-50 -258h102z"/>
<glyph glyph-name="Adieresis" horiz-adv-x="407" unicode="Ä" d="M240 756v102h90v-102h-90zM78 756v102h90v-102h-90zM2 0l159 712h85l159 -712h-102l-30 153h-139l-30 -153h-102zM254 249l-50 258h-2l-50 -258h102z"/>
<glyph glyph-name="Aring" horiz-adv-x="407" unicode="Å" d="M143 835q0 -25 17.5 -43t43.5 -18t43.5 18t17.5 43t-17.5 43t-43.5 18t-43.5 -18t-17.5 -43zM102 835q0 42 30 72t72 30t72 -30.5t30 -71.5q0 -42 -30 -72t-72 -30t-72 30.5t-30 71.5zM2 0l159 712h85l159 -712h-102l-30 153h-139l-30 -153h-102zM254 249l-50 258h-2 l-50 -258h102z"/>
<glyph glyph-name="AE" horiz-adv-x="611" unicode="Æ" d="M289 249v367h-24l-92 -367h116zM2 0l202 712h389v-96h-202v-209h176v-96h-176v-209h202v-102h-304v153h-140l-39 -153h-108z"/>
<glyph glyph-name="Ccedilla" horiz-adv-x="407" unicode="Ç" d="M131 -86l61 80q-63 5 -106.5 45t-43.5 123v392q0 71 46.5 117.5t119.5 46.5q71 0 117.5 -48t46.5 -122v-40h-102v34q0 31 -17.5 52.5t-45.5 21.5q-36 0 -49.5 -21.5t-13.5 -61.5v-364q0 -73 62 -73q25 0 44.5 17t19.5 55v35h102v-44q0 -59 -37.5 -105.5t-95.5 -57.5 l-43 -56q20 2 31 2q45 0 65 -23t20 -52q0 -45 -37.5 -68t-85.5 -23q-41 0 -93 19l17 42q39 -15 65 -15q54 0 54 41q0 17 -13.5 27.5t-31.5 10.5q-21 0 -39 -7z"/>
<glyph glyph-name="Egrave" d="M170 885l90 -141h-66l-132 141h108zM48 0v712h304v-96h-202v-209h176v-96h-176v-209h202v-102h-304z" unicode="È"/>
<glyph glyph-name="Eacute" d="M130 744l90 141h108l-132 -141h-66zM48 0v712h304v-96h-202v-209h176v-96h-176v-209h202v-102h-304z" unicode="É"/>
<glyph glyph-name="Ecircumflex" d="M50 744l98 141h94l98 -141h-78l-67 95l-67 -95h-78zM48 0v712h304v-96h-202v-209h176v-96h-176v-209h202v-102h-304z" unicode="Ê"/>
<glyph glyph-name="Edieresis" d="M231 756v102h90v-102h-90zM69 756v102h90v-102h-90zM48 0v712h304v-96h-202v-209h176v-96h-176v-209h202v-102h-304z" unicode="Ë"/>
<glyph glyph-name="Igrave" horiz-adv-x="204" unicode="Ì" d="M77 885l90 -141h-66l-132 141h108zM51 0v712h102v-712h-102z"/>
<glyph glyph-name="Iacute" horiz-adv-x="204" unicode="Í" d="M37 744l90 141h108l-132 -141h-66zM51 0v712h102v-712h-102z"/>
<glyph glyph-name="Icircumflex" horiz-adv-x="204" unicode="Î" d="M-43 744l98 141h94l98 -141h-78l-67 95l-67 -95h-78zM51 0v712h102v-712h-102z"/>
<glyph glyph-name="Idieresis" horiz-adv-x="204" unicode="Ï" d="M138 756v102h90v-102h-90zM-24 756v102h90v-102h-90zM51 0v712h102v-712h-102z"/>
<glyph glyph-name="Eth" horiz-adv-x="426" unicode="Ð" d="M48 0v350h-48v66h48v296h151q86 0 132.5 -48.5t46.5 -135.5v-333q0 -98 -48.5 -146.5t-139.5 -48.5h-142zM150 616v-200h70v-66h-70v-254h47q42 0 60.5 21.5t18.5 67.5v343q0 44 -18 66t-61 22h-47z"/>
<glyph glyph-name="Ntilde" horiz-adv-x="444" unicode="Ñ" d="M341 869h51q-22 -111 -101 -111q-17 0 -75 20t-69 20q-20 0 -31.5 -12.5t-12.5 -32.5h-51q22 111 101 111q17 0 75.5 -20t68.5 -20q20 0 31.5 12.5t12.5 32.5zM44 0v712h98l154 -429h2v429h102v-712h-96l-156 428h-2v-428h-102z"/>
<glyph glyph-name="Ograve" horiz-adv-x="426" unicode="Ò" d="M188 885l90 -141h-66l-132 141h108zM144 544v-376q0 -35 19.5 -53.5t49.5 -18.5t49.5 18.5t19.5 53.5v376q0 35 -19.5 53.5t-49.5 18.5t-49.5 -18.5t-19.5 -53.5zM42 168v376q0 82 51.5 128t119.5 46t119.5 -46t51.5 -128v-376q0 -82 -51.5 -128t-119.5 -46t-119.5 46 t-51.5 128z"/>
<glyph glyph-name="Oacute" horiz-adv-x="426" unicode="Ó" d="M148 744l90 141h108l-132 -141h-66zM144 544v-376q0 -35 19.5 -53.5t49.5 -18.5t49.5 18.5t19.5 53.5v376q0 35 -19.5 53.5t-49.5 18.5t-49.5 -18.5t-19.5 -53.5zM42 168v376q0 82 51.5 128t119.5 46t119.5 -46t51.5 -128v-376q0 -82 -51.5 -128t-119.5 -46t-119.5 46 t-51.5 128z"/>
<glyph glyph-name="Ocircumflex" horiz-adv-x="426" unicode="Ô" d="M68 744l98 141h94l98 -141h-78l-67 95l-67 -95h-78zM144 544v-376q0 -35 19.5 -53.5t49.5 -18.5t49.5 18.5t19.5 53.5v376q0 35 -19.5 53.5t-49.5 18.5t-49.5 -18.5t-19.5 -53.5zM42 168v376q0 82 51.5 128t119.5 46t119.5 -46t51.5 -128v-376q0 -82 -51.5 -128 t-119.5 -46t-119.5 46t-51.5 128z"/>
<glyph glyph-name="Otilde" horiz-adv-x="426" unicode="Õ" d="M332 869h51q-22 -111 -101 -111q-16 0 -75 20t-69 20q-20 0 -31.5 -12.5t-12.5 -32.5h-51q22 111 101 111q17 0 75.5 -20t68.5 -20q20 0 31.5 12.5t12.5 32.5zM144 544v-376q0 -35 19.5 -53.5t49.5 -18.5t49.5 18.5t19.5 53.5v376q0 35 -19.5 53.5t-49.5 18.5 t-49.5 -18.5t-19.5 -53.5zM42 168v376q0 82 51.5 128t119.5 46t119.5 -46t51.5 -128v-376q0 -82 -51.5 -128t-119.5 -46t-119.5 46t-51.5 128z"/>
<glyph glyph-name="Odieresis" horiz-adv-x="426" unicode="Ö" d="M249 756v102h90v-102h-90zM87 756v102h90v-102h-90zM144 544v-376q0 -35 19.5 -53.5t49.5 -18.5t49.5 18.5t19.5 53.5v376q0 35 -19.5 53.5t-49.5 18.5t-49.5 -18.5t-19.5 -53.5zM42 168v376q0 82 51.5 128t119.5 46t119.5 -46t51.5 -128v-376q0 -82 -51.5 -128 t-119.5 -46t-119.5 46t-51.5 128z"/>
<glyph glyph-name="multiply" horiz-adv-x="600" unicode="×" d="M67 77l177 176l-177 177l57 56l176 -176l177 176l56 -56l-176 -177l176 -176l-56 -57l-177 177l-176 -177z"/>
<glyph glyph-name="Oslash" horiz-adv-x="426" unicode="Ø" d="M280 449l-136 -286q1 -32 20.5 -49.5t48.5 -17.5q30 0 49.5 18.5t19.5 53.5v281h-2zM146 262l136 287q-2 33 -21.5 50t-47.5 17q-30 0 -49.5 -18.5t-19.5 -53.5v-282h2zM10 -16l50 103q-18 35 -18 81v376q0 82 51.5 128t119.5 46q74 0 125 -52l40 84l38 -22l-50 -103 q18 -34 18 -81v-376q0 -82 -51.5 -128t-119.5 -46q-77 0 -125 52l-40 -84z"/>
<glyph glyph-name="Ugrave" horiz-adv-x="426" unicode="Ù" d="M188 885l90 -141h-66l-132 141h108zM378 712v-552q0 -70 -48 -118t-117 -48t-117 48t-48 118v552h102v-542q0 -36 17.5 -55t45.5 -19t45.5 19t17.5 55v542h102z"/>
<glyph glyph-name="Uacute" horiz-adv-x="426" unicode="Ú" d="M148 744l90 141h108l-132 -141h-66zM378 712v-552q0 -70 -48 -118t-117 -48t-117 48t-48 118v552h102v-542q0 -36 17.5 -55t45.5 -19t45.5 19t17.5 55v542h102z"/>
<glyph glyph-name="Ucircumflex" horiz-adv-x="426" unicode="Û" d="M68 744l98 141h94l98 -141h-78l-67 95l-67 -95h-78zM378 712v-552q0 -70 -48 -118t-117 -48t-117 48t-48 118v552h102v-542q0 -36 17.5 -55t45.5 -19t45.5 19t17.5 55v542h102z"/>
<glyph glyph-name="Udieresis" horiz-adv-x="426" unicode="Ü" d="M249 756v102h90v-102h-90zM87 756v102h90v-102h-90zM378 712v-552q0 -70 -48 -118t-117 -48t-117 48t-48 118v552h102v-542q0 -36 17.5 -55t45.5 -19t45.5 19t17.5 55v542h102z"/>
<glyph glyph-name="Yacute" horiz-adv-x="388" unicode="Ý" d="M129 744l90 141h108l-132 -141h-66zM143 0v301l-140 411h108l82 -283h2l82 283h108l-140 -411v-301h-102z"/>
<glyph glyph-name="Thorn" horiz-adv-x="407" unicode="Þ" d="M150 492v-242h49q24 0 40.5 6.5t25 15t13 26.5t5 31.5t0.5 40.5q0 26 -0.5 39t-4.5 32t-12 28t-24 16t-39 7h-53zM48 0v712h102v-124h51q85 0 132 -50q26 -27 36 -64.5t10 -102.5q0 -96 -29 -143q-45 -74 -148 -74h-52v-154h-102z"/>
<glyph glyph-name="germandbls" horiz-adv-x="389" unicode="ß" d="M42 0v552q0 70 38.5 118t112.5 48q154 0 154 -182q0 -53 -11 -77t-48 -47q59 -33 59 -102v-176q0 -84 -39 -112t-107 -28v96q23 0 33.5 10.5t10.5 40.5v190q0 33 -44 33v90q24 0 34 8t10 31v80q0 49 -48 49q-29 0 -41 -19.5t-12 -68.5v-534h-102z"/>
<glyph glyph-name="agrave" d="M160 715l90 -141h-66l-132 141h108zM235 149v69q-17 3 -28 3q-80 0 -80 -72q0 -30 14 -47.5t39 -17.5q26 0 40.5 17t14.5 48zM235 0v52h-2q-23 -31 -43.5 -44.5t-54.5 -13.5q-45 0 -77.5 30t-32.5 105q0 91 34.5 131.5t126.5 40.5q8 0 24 -1.5t25 -1.5v53q0 60 -51 60 q-21 0 -37.5 -13.5t-20.5 -37.5h-99q5 69 46 110q43 43 111 43q67 0 110 -41.5t43 -118.5v-353h-102z" unicode="à"/>
<glyph glyph-name="aacute" d="M120 574l90 141h108l-132 -141h-66zM235 149v69q-17 3 -28 3q-80 0 -80 -72q0 -30 14 -47.5t39 -17.5q26 0 40.5 17t14.5 48zM235 0v52h-2q-23 -31 -43.5 -44.5t-54.5 -13.5q-45 0 -77.5 30t-32.5 105q0 91 34.5 131.5t126.5 40.5q8 0 24 -1.5t25 -1.5v53q0 60 -51 60 q-21 0 -37.5 -13.5t-20.5 -37.5h-99q5 69 46 110q43 43 111 43q67 0 110 -41.5t43 -118.5v-353h-102z" unicode="á"/>
<glyph glyph-name="acircumflex" d="M40 574l98 141h94l98 -141h-78l-67 95l-67 -95h-78zM235 149v69q-17 3 -28 3q-80 0 -80 -72q0 -30 14 -47.5t39 -17.5q26 0 40.5 17t14.5 48zM235 0v52h-2q-23 -31 -43.5 -44.5t-54.5 -13.5q-45 0 -77.5 30t-32.5 105q0 91 34.5 131.5t126.5 40.5q8 0 24 -1.5t25 -1.5v53 q0 60 -51 60q-21 0 -37.5 -13.5t-20.5 -37.5h-99q5 69 46 110q43 43 111 43q67 0 110 -41.5t43 -118.5v-353h-102z" unicode="â"/>
<glyph glyph-name="atilde" d="M304 699h51q-22 -111 -101 -111q-17 0 -75.5 20t-68.5 20q-20 0 -31.5 -12.5t-12.5 -32.5h-51q22 111 101 111q17 0 75.5 -20t68.5 -20q20 0 31.5 12.5t12.5 32.5zM235 149v69q-17 3 -28 3q-80 0 -80 -72q0 -30 14 -47.5t39 -17.5q26 0 40.5 17t14.5 48zM235 0v52h-2 q-23 -31 -43.5 -44.5t-54.5 -13.5q-45 0 -77.5 30t-32.5 105q0 91 34.5 131.5t126.5 40.5q8 0 24 -1.5t25 -1.5v53q0 60 -51 60q-21 0 -37.5 -13.5t-20.5 -37.5h-99q5 69 46 110q43 43 111 43q67 0 110 -41.5t43 -118.5v-353h-102z" unicode="ã"/>
<glyph glyph-name="adieresis" d="M221 586v102h90v-102h-90zM59 586v102h90v-102h-90zM235 149v69q-17 3 -28 3q-80 0 -80 -72q0 -30 14 -47.5t39 -17.5q26 0 40.5 17t14.5 48zM235 0v52h-2q-23 -31 -43.5 -44.5t-54.5 -13.5q-45 0 -77.5 30t-32.5 105q0 91 34.5 131.5t126.5 40.5q8 0 24 -1.5t25 -1.5v53 q0 60 -51 60q-21 0 -37.5 -13.5t-20.5 -37.5h-99q5 69 46 110q43 43 111 43q67 0 110 -41.5t43 -118.5v-353h-102z" unicode="ä"/>
<glyph glyph-name="aring" d="M124 660q0 -26 18 -43.5t43 -17.5t43 17.5t18 43.5t-18 43.5t-43 17.5t-43 -17.5t-18 -43.5zM83 660q0 42 30 72t72 30t72 -30.5t30 -71.5q0 -42 -30 -72t-72 -30t-72 30.5t-30 71.5zM235 149v69q-17 3 -28 3q-80 0 -80 -72q0 -30 14 -47.5t39 -17.5q26 0 40.5 17 t14.5 48zM235 0v52h-2q-23 -31 -43.5 -44.5t-54.5 -13.5q-45 0 -77.5 30t-32.5 105q0 91 34.5 131.5t126.5 40.5q8 0 24 -1.5t25 -1.5v53q0 60 -51 60q-21 0 -37.5 -13.5t-20.5 -37.5h-99q5 69 46 110q43 43 111 43q67 0 110 -41.5t43 -118.5v-353h-102z" unicode="å"/>
<glyph glyph-name="ae" horiz-adv-x="572" unicode="æ" d="M235 149v69q-17 3 -28 3q-80 0 -80 -72q0 -30 14 -47.5t39 -17.5q26 0 40.5 17t14.5 48zM539 355v-140h-202v-69q0 -24 13.5 -37t36.5 -13q45 0 50 51h102q0 -66 -42.5 -109t-109.5 -44h-3q-46 0 -80 20.5t-50 51.5q-36 -72 -119 -72q-45 0 -77.5 30t-32.5 105 q0 91 34.5 131.5t126.5 40.5q8 0 24 -1.5t25 -1.5v53q0 60 -51 60q-21 0 -37.5 -13.5t-20.5 -37.5h-99q5 69 47 111t110 42q59 0 101 -36q41 36 102 36q69 0 110.5 -45t41.5 -113zM337 353v-58h100v58q0 58 -50 58t-50 -58z"/>
<glyph glyph-name="ccedilla" d="M112 -86l63 82q-75 11 -108 71q-19 35 -19 103v167q0 68 19 103q40 73 133 73q69 0 110.5 -45t41.5 -117h-102q0 60 -50 60t-50 -58v-207q0 -24 13.5 -37t36.5 -13q45 0 50 51h102q0 -65 -41 -108q-36 -37 -91 -43l-43 -56q20 2 31 2q45 0 65 -23t20 -52q0 -45 -37.5 -68 t-85.5 -23q-41 0 -93 19l17 42q39 -15 65 -15q54 0 54 41q0 17 -13.5 27.5t-31.5 10.5q-21 0 -39 -7z" unicode="ç"/>
<glyph glyph-name="egrave" d="M160 715l90 -141h-66l-132 141h108zM135 353v-58h100v58q0 58 -50 58t-50 -58zM337 215h-202v-69q0 -24 13.5 -37t36.5 -13q45 0 50 51h102q0 -65 -41 -108q-43 -45 -111 -45q-93 0 -133 73q-19 35 -19 103v167q0 68 19 103q40 73 133 73q69 0 110.5 -45t41.5 -113v-140z " unicode="è"/>
<glyph glyph-name="eacute" d="M120 574l90 141h108l-132 -141h-66zM135 353v-58h100v58q0 58 -50 58t-50 -58zM337 215h-202v-69q0 -24 13.5 -37t36.5 -13q45 0 50 51h102q0 -65 -41 -108q-43 -45 -111 -45q-93 0 -133 73q-19 35 -19 103v167q0 68 19 103q40 73 133 73q69 0 110.5 -45t41.5 -113v-140z " unicode="é"/>
<glyph glyph-name="ecircumflex" d="M40 574l98 141h94l98 -141h-78l-67 95l-67 -95h-78zM135 353v-58h100v58q0 58 -50 58t-50 -58zM337 215h-202v-69q0 -24 13.5 -37t36.5 -13q45 0 50 51h102q0 -65 -41 -108q-43 -45 -111 -45q-93 0 -133 73q-19 35 -19 103v167q0 68 19 103q40 73 133 73q69 0 110.5 -45 t41.5 -113v-140z" unicode="ê"/>
<glyph glyph-name="edieresis" d="M221 586v102h90v-102h-90zM59 586v102h90v-102h-90zM135 353v-58h100v58q0 58 -50 58t-50 -58zM337 215h-202v-69q0 -24 13.5 -37t36.5 -13q45 0 50 51h102q0 -65 -41 -108q-43 -45 -111 -45q-93 0 -133 73q-19 35 -19 103v167q0 68 19 103q40 73 133 73q69 0 110.5 -45 t41.5 -113v-140z" unicode="ë"/>
<glyph glyph-name="igrave" horiz-adv-x="186" unicode="ì" d="M68 715l90 -141h-66l-132 141h108zM42 0v507h102v-507h-102z"/>
<glyph glyph-name="iacute" horiz-adv-x="186" unicode="í" d="M28 574l90 141h108l-132 -141h-66zM42 0v507h102v-507h-102z"/>
<glyph glyph-name="icircumflex" horiz-adv-x="186" unicode="î" d="M-52 574l98 141h94l98 -141h-78l-67 95l-67 -95h-78zM42 0v507h102v-507h-102z"/>
<glyph glyph-name="idieresis" horiz-adv-x="186" unicode="ï" d="M129 586v102h90v-102h-90zM-33 586v102h90v-102h-90zM42 0v507h102v-507h-102z"/>
<glyph glyph-name="eth" d="M86 608l69 32q-29 24 -77 43l83 44q46 -16 80 -47l68 32l28 -40l-63 -29q63 -83 63 -235v-238q0 -68 -19 -103q-40 -73 -133 -73t-133 73q-19 35 -19 103v167q0 68 19 103q40 73 133 73q30 0 48 -23l2 2q-18 74 -47 111l-74 -35zM135 353v-199q0 -58 50 -58t50 58v199 q0 58 -50 58t-50 -58z" unicode="ð"/>
<glyph glyph-name="ntilde" horiz-adv-x="389" unicode="ñ" d="M314 699h51q-22 -111 -101 -111q-16 0 -75 20t-69 20q-20 0 -31.5 -12.5t-12.5 -32.5h-51q22 111 101 111q17 0 75.5 -20t68.5 -20q20 0 31.5 12.5t12.5 32.5zM42 0v507h102v-49h2q36 55 96 55q43 0 74 -30.5t31 -93.5v-389h-102v351q0 28 -13 44t-37 16q-51 0 -51 -70 v-341h-102z"/>
<glyph glyph-name="ograve" d="M160 715l90 -141h-66l-132 141h108zM135 353v-199q0 -58 50 -58t50 58v199q0 58 -50 58t-50 -58zM33 170v167q0 68 19 103q40 73 133 73t133 -73q19 -35 19 -103v-167q0 -68 -19 -103q-40 -73 -133 -73t-133 73q-19 35 -19 103z" unicode="ò"/>
<glyph glyph-name="oacute" d="M120 574l90 141h108l-132 -141h-66zM135 353v-199q0 -58 50 -58t50 58v199q0 58 -50 58t-50 -58zM33 170v167q0 68 19 103q40 73 133 73t133 -73q19 -35 19 -103v-167q0 -68 -19 -103q-40 -73 -133 -73t-133 73q-19 35 -19 103z" unicode="ó"/>
<glyph glyph-name="ocircumflex" d="M40 574l98 141h94l98 -141h-78l-67 95l-67 -95h-78zM135 353v-199q0 -58 50 -58t50 58v199q0 58 -50 58t-50 -58zM33 170v167q0 68 19 103q40 73 133 73t133 -73q19 -35 19 -103v-167q0 -68 -19 -103q-40 -73 -133 -73t-133 73q-19 35 -19 103z" unicode="ô"/>
<glyph glyph-name="otilde" d="M304 699h51q-22 -111 -101 -111q-17 0 -75.5 20t-68.5 20q-20 0 -31.5 -12.5t-12.5 -32.5h-51q22 111 101 111q17 0 75.5 -20t68.5 -20q20 0 31.5 12.5t12.5 32.5zM135 353v-199q0 -58 50 -58t50 58v199q0 58 -50 58t-50 -58zM33 170v167q0 68 19 103q40 73 133 73 t133 -73q19 -35 19 -103v-167q0 -68 -19 -103q-40 -73 -133 -73t-133 73q-19 35 -19 103z" unicode="õ"/>
<glyph glyph-name="odieresis" d="M221 586v102h90v-102h-90zM59 586v102h90v-102h-90zM135 353v-199q0 -58 50 -58t50 58v199q0 58 -50 58t-50 -58zM33 170v167q0 68 19 103q40 73 133 73t133 -73q19 -35 19 -103v-167q0 -68 -19 -103q-40 -73 -133 -73t-133 73q-19 35 -19 103z" unicode="ö"/>
<glyph glyph-name="divide" horiz-adv-x="600" unicode="÷" d="M236 460q0 26 19 45t45 19t45 -19t19 -45t-19 -45t-45 -19t-45 19t-19 45zM236 46q0 26 19 45t45 19t45 -19t19 -45t-19 -45t-45 -19t-45 19t-19 45zM47 213v80h506v-80h-506z"/>
<glyph glyph-name="oslash" d="M4 -12l49 83q-20 40 -20 87v191q0 72 41.5 118t110.5 46q66 0 106 -42l41 69l34 -21l-49 -83q20 -40 20 -87v-191q0 -72 -41.5 -118t-110.5 -46q-66 0 -106 42l-41 -69zM233 298l-95 -163q6 -39 47 -39q50 0 50 58v144h-2zM137 209l95 163q-6 39 -47 39q-50 0 -50 -58 v-144h2z" unicode="ø"/>
<glyph glyph-name="ugrave" horiz-adv-x="389" unicode="ù" d="M170 715l90 -141h-66l-132 141h108zM347 507v-507h-102v49h-2q-36 -55 -96 -55q-43 0 -74 30.5t-31 93.5v389h102v-351q0 -28 13 -44t37 -16q51 0 51 70v341h102z"/>
<glyph glyph-name="uacute" horiz-adv-x="389" unicode="ú" d="M130 574l90 141h108l-132 -141h-66zM347 507v-507h-102v49h-2q-36 -55 -96 -55q-43 0 -74 30.5t-31 93.5v389h102v-351q0 -28 13 -44t37 -16q51 0 51 70v341h102z"/>
<glyph glyph-name="ucircumflex" horiz-adv-x="389" unicode="û" d="M50 574l98 141h94l98 -141h-78l-67 95l-67 -95h-78zM347 507v-507h-102v49h-2q-36 -55 -96 -55q-43 0 -74 30.5t-31 93.5v389h102v-351q0 -28 13 -44t37 -16q51 0 51 70v341h102z"/>
<glyph glyph-name="udieresis" horiz-adv-x="389" unicode="ü" d="M231 586v102h90v-102h-90zM69 586v102h90v-102h-90zM347 507v-507h-102v49h-2q-36 -55 -96 -55q-43 0 -74 30.5t-31 93.5v389h102v-351q0 -28 13 -44t37 -16q51 0 51 70v341h102z"/>
<glyph glyph-name="yacute" horiz-adv-x="352" unicode="ý" d="M111 574l90 141h108l-132 -141h-66zM-1 507h108l70 -316h2l69 316h105l-146 -595q-28 -117 -141 -117h-28v96h23q32 0 46 23t31 109z"/>
<glyph glyph-name="thorn" horiz-adv-x="389" unicode="þ" d="M245 156v186q0 69 -50 69q-23 0 -37 -17.5t-14 -45.5v-197q0 -24 14.5 -39.5t36.5 -15.5q50 0 50 60zM42 -205v917h102v-251q17 19 26 27.5t28 16.5t43 8q63 0 89 -48q17 -31 17 -109v-193q0 -97 -16 -123q-29 -46 -91 -46q-59 0 -94 52h-2v-251h-102z"/>
<glyph glyph-name="OE" horiz-adv-x="610" unicode="Œ" d="M592 712v-96h-202v-209h176v-96h-176v-209h202v-102h-304v34h-2q-13 -17 -36.5 -28.5t-48.5 -11.5q-70 0 -111.5 49t-41.5 120v386q0 71 41.5 120t111.5 49q58 0 85 -42h2v36h304zM288 158v396q0 31 -19 52.5t-50 21.5t-50 -21.5t-19 -52.5v-396q0 -31 19 -52.5t50 -21.5 t50 21.5t19 52.5z"/>
<glyph glyph-name="oe" horiz-adv-x="572" unicode="œ" d="M135 353v-199q0 -58 50 -58t50 58v199q0 58 -50 58t-50 -58zM337 353v-58h100v58q0 58 -50 58t-50 -58zM33 170v167q0 68 19 103q40 73 133 73q60 0 101 -34q38 34 101 34q69 0 110.5 -45t41.5 -113v-140h-202v-69q0 -24 13.5 -37t36.5 -13q45 0 50 51h102 q0 -65 -41 -108q-43 -45 -111 -45q-71 0 -105 35q-37 -35 -97 -35q-93 0 -133 73q-19 35 -19 103z"/>
<glyph glyph-name="Scaron" horiz-adv-x="406" unicode="Š" d="M348 885l-98 -141h-94l-98 141h78l67 -95l67 95h78zM378 557v-50h-102v23q0 38 -17.5 62t-54.5 24q-69 0 -69 -92q0 -44 10 -62t48 -33l78 -31q64 -24 85.5 -67.5t21.5 -127.5q0 -209 -176 -209q-74 0 -124 48.5t-50 120.5v38h102v-32q0 -31 18 -52t54 -21 q47 0 60.5 24.5t13.5 81.5q0 56 -10.5 74.5t-48.5 33.5l-73 30q-63 26 -87 69t-24 114q0 85 45.5 140t129.5 55q73 0 121.5 -49.5t48.5 -111.5z"/>
<glyph glyph-name="scaron" horiz-adv-x="352" unicode="š" d="M321 715l-98 -141h-94l-98 141h78l67 -95l67 95h78zM323 365h-96q-1 24 -16 38t-36 14q-23 0 -36.5 -15t-13.5 -36q0 -35 43 -52l60 -24q100 -38 100 -143q0 -64 -43.5 -108.5t-108.5 -44.5q-63 0 -106 40.5t-46 112.5h96q8 -57 55 -57q23 0 40 15.5t17 39.5q0 42 -51 62 l-49 18q-103 39 -103 140q0 64 44 106t106 42t102.5 -42.5t41.5 -105.5z"/>
<glyph glyph-name="Ydieresis" horiz-adv-x="388" unicode="Ÿ" d="M230 756v102h90v-102h-90zM68 756v102h90v-102h-90zM143 0v301l-140 411h108l82 -283h2l82 283h108l-140 -411v-301h-102z"/>
<glyph glyph-name="circumflex" horiz-adv-x="186" unicode="ˆ" d="M-52 574l98 141h94l98 -141h-78l-67 95l-67 -95h-78z"/>
<glyph glyph-name="tilde" horiz-adv-x="186" unicode="˜" d="M212 699h51q-22 -111 -101 -111q-16 0 -74.5 20t-69.5 20q-20 0 -31.5 -12.5t-12.5 -32.5h-51q22 111 101 111q17 0 75.5 -20t68.5 -20q20 0 31.5 12.5t12.5 32.5z"/>
<glyph glyph-name="uni03BC" horiz-adv-x="389" unicode="μ" d="M347 507v-507h-102v49h-2q-12 -26 -32 -42q-17 -13 -34 -13q-21 0 -31 10h-2v-209h-102v712h102v-351q0 -28 13 -44t37 -16q51 0 51 70v341h102z"/>
<glyph glyph-name="pi" horiz-adv-x="422" unicode="π" d="M403 430h-46v-302q0 -86 9 -128h-91q-13 32 -13 129v301h-88q-10 -272 -47 -430h-91q19 90 31 215.5t13 214.5q-40 0 -61 -7l-12 72q34 30 117 30h285z"/>
<glyph glyph-name="endash" horiz-adv-x="500" unicode="–" d="M0 229v96h500v-96h-500z"/>
<glyph glyph-name="emdash" horiz-adv-x="1000" unicode="—" d="M0 229v96h1000v-96h-1000z"/>
<glyph glyph-name="quoteleft" horiz-adv-x="186" unicode="‘" d="M144 712v-176h-102v102z"/>
<glyph glyph-name="quotesinglbase" horiz-adv-x="186" unicode="‚" d="M42 -74v176h102v-102z"/>
<glyph glyph-name="quotedblleft" horiz-adv-x="278" unicode="“" d="M120 712v-176h-102v102zM260 712v-176h-102v102z"/>
<glyph glyph-name="quotedblright" horiz-adv-x="278" unicode="”" d="M158 536v176h102v-102zM18 536v176h102v-102z"/>
<glyph glyph-name="dagger" d="M140 -205v601h-134v90h134v226h90v-226h134v-90h-134v-601h-90z" unicode="†"/>
<glyph glyph-name="daggerdbl" d="M140 494v218h90v-218h134v-80h-134v-321h134v-80h-134v-218h-90v218h-134v80h134v321h-134v80h134z" unicode="‡"/>
<glyph glyph-name="ellipsis" horiz-adv-x="1000" unicode="…" d="M782 0v102h102v-102h-102zM449 0v102h102v-102h-102zM116 0v102h102v-102h-102z"/>
<glyph glyph-name="perthousand" horiz-adv-x="537" unicode="‰" d="M20 0l244 712h66l-244 -712h-66zM165 70v65q0 38 23 60t62 22t62 -22t23 -60v-65q0 -34 -23 -55t-62 -21t-62 21t-23 55zM225 131v-51q0 -10 7.5 -18t17.5 -8t17.5 8t7.5 18v51q0 10 -7.5 18t-17.5 8t-17.5 -8t-7.5 -18zM9 571v65q0 38 23 60t62 22t62 -22t23 -60v-65 q0 -34 -23 -55t-62 -21t-62 21t-23 55zM69 632v-51q0 -10 7.5 -18t17.5 -8t17.5 8t7.5 18v51q0 10 -7.5 18t-17.5 8t-17.5 -8t-7.5 -18zM358 70v65q0 38 23 60t62 22t62 -22t23 -60v-65q0 -34 -23 -55t-62 -21t-62 21t-23 55zM418 131v-51q0 -10 7.5 -18t17.5 -8t17.5 8 t7.5 18v51q0 10 -7.5 18t-17.5 8t-17.5 -8t-7.5 -18z"/>
<glyph glyph-name="guilsinglleft" horiz-adv-x="241" unicode="‹" d="M213 479v-102l-101 -100l101 -100v-102l-203 202z"/>
<glyph glyph-name="guilsinglright" horiz-adv-x="241" unicode="›" d="M28 75v102l101 100l-101 100v102l203 -202z"/>
<glyph glyph-name="fraction" horiz-adv-x="167" unicode="⁄" d="M-165 -17l437 746h60l-437 -746h-60z"/>
<glyph glyph-name="Euro" horiz-adv-x="372" unicode="€" d="M341 694v-95q-25 25 -76 25q-82 0 -91 -155h143l-20 -78h-128v-33v-34h111l-20 -79h-86q8 -158 91 -158q52 0 76 24v-97q-25 -19 -95 -19q-74 0 -116.5 59.5t-53.5 190.5h-60l20 79h32q-1 9 -1 34q0 21 1 33h-52l20 78h38q19 248 173 248q64 0 94 -23z"/>
<glyph glyph-name="trademark" horiz-adv-x="990" unicode="™" d="M805 300v346h-2l-137 -346h-41l-136 346h-2v-346h-72v412h114l117 -301l117 301h114v-412h-72zM166 300v346h-127v66h326v-66h-127v-346h-72z"/>
<glyph glyph-name="partialdiff" horiz-adv-x="410" unicode="∂" d="M184 93h2q35 0 58 74t28 174q-7 27 -24 46.5t-42 19.5q-35 0 -56.5 -55.5t-21.5 -129.5q0 -59 14.5 -94t41.5 -35zM79 659l-25 87q55 51 125 51q80 0 136.5 -92t56.5 -281q0 -209 -51 -316.5t-146 -107.5q-66 0 -104.5 65.5t-38.5 163.5q0 122 47 194.5t111 72.5 q31 0 53.5 -16t33.5 -38h1v29q0 94 -31 164.5t-81 70.5q-46 0 -87 -47z"/>
<glyph glyph-name="product" horiz-adv-x="513" unicode="∏" d="M489 599h-64v-696h-97v696h-144v-696h-97v696h-64v100h466v-100z"/>
<glyph glyph-name="summation" horiz-adv-x="391" unicode="∑" d="M376 -97h-355v75l170 326l-166 318v77h338v-88h-215v-3l149 -281l-170 -318v-3h249v-103z"/>
<glyph glyph-name="minus" horiz-adv-x="600" unicode="−" d="M47 213v80h506v-80h-506z"/>
<glyph glyph-name="radical" horiz-adv-x="439" unicode="√" d="M433 842l-156 -979h-78l-103 443l-54 -21l-15 63l131 51l64 -294q14 -85 15 -97l1 -1q8 84 11 101l119 734h65z"/>
<glyph glyph-name="infinity" horiz-adv-x="635" unicode="∞" d="M464 371h-1q-12 0 -24.5 -4.5t-21 -10t-20.5 -16.5t-17 -16.5t-16.5 -19t-13.5 -16.5q40 -50 62.5 -68t54.5 -18t51.5 26t19.5 57q0 38 -20.5 62t-53.5 24zM175 202h1q22 0 43.5 13t33.5 26.5t35 40.5q-25 34 -35.5 46.5t-33 27.5t-47.5 15q-36 0 -55.5 -24.5 t-19.5 -62.5q0 -34 23 -58t55 -24zM597 290v-1q0 -65 -39 -104.5t-93 -39.5q-39 0 -72.5 20t-72.5 72q-37 -45 -72 -68.5t-81 -23.5q-53 0 -91 39.5t-38 100.5q0 63 38.5 103t97.5 40q78 0 146 -91q45 50 67 65q38 26 82 26q55 0 91.5 -38.5t36.5 -99.5z"/>
<glyph glyph-name="approxequal" horiz-adv-x="401" unicode="≈" d="M335 271l37 -29q-14 -40 -41 -66t-60 -26q-34 0 -80 32q-38 27 -55 29q-4 1 -8 1q-15 0 -27.5 -10.5t-19 -21t-16.5 -30.5l-37 28q16 41 43.5 66t62.5 25q11 0 21 -2t19.5 -6t14.5 -7t14 -8.5t11 -6.5q5 -3 17 -11l16.5 -11t12.5 -6t15 -3q13 0 24.5 9.5t18.5 21t17 32.5 zM335 423l37 -29q-14 -40 -41 -66t-60 -26q-34 0 -80 32q-42 30 -63 30q-15 0 -27.5 -10.5t-18.5 -20t-17 -31.5l-37 29q16 41 43.5 66t62.5 25q13 0 27 -4t20 -7t19 -11l14 -9q45 -30 61 -30q19 0 32 15t28 47z"/>
<glyph glyph-name="notequal" horiz-adv-x="401" unicode="≠" d="M296 471l-28 -71h95v-62h-114l-44 -111h158v-61h-178l-34 -86l-46 15l28 71h-96v61h116l43 111h-159v62h179l34 87z"/>
<glyph glyph-name="lessequal" horiz-adv-x="401" unicode="≤" d="M365 10h-327v64h327v-64zM360 108l-319 193v67l319 193v-75l-264 -150v-2l264 -151v-75z"/>
<glyph glyph-name="greaterequal" horiz-adv-x="401" unicode="≥" d="M365 10h-326v64h326v-64zM44 561l319 -193v-66l-319 -194v75l263 151v2l-263 150v75z"/>
<glyph glyph-name="lozenge" horiz-adv-x="438" unicode="◊" d="M310 347l-72 224q-9 28 -15 71h-3q-10 -55 -15 -71l-76 -219l73 -230q7 -25 13 -66h5q5 40 13 64zM399 349l-142 -387h-83l-134 387l142 388h83z"/>
</font>
</defs>
</svg>
